<?xml version="1.0" encoding="UTF-8" standalone="no"?>
<!DOCTYPE svg PUBLIC "-//W3C//DTD SVG 1.1//EN" "http://www.w3.org/Graphics/SVG/1.1/DTD/svg11.dtd">
<svg xmlns="http://www.w3.org/2000/svg" version="1.1" viewBox="0.00 0.00 1254.00 1254.00">
<g stroke-width="2.00" fill="none" stroke-linecap="butt">
<path stroke="#f2d8a8" vector-effect="non-scaling-stroke" d="
  M 171.77 993.00
  Q 171.62 995.09 171.03 996.76
  Q 169.48 1001.20 158.36 1036.11
  C 155.21 1045.99 156.26 1056.88 166.04 1062.00
  Q 171.04 1064.61 175.03 1064.71
  Q 181.45 1064.87 245.82 1064.76
  A 4.36 4.34 65.8 0 1 248.72 1065.87
  Q 286.78 1100.16 330.40 1127.07
  Q 366.32 1149.23 401.55 1164.92
  Q 486.77 1202.90 579.75 1210.62
  Q 630.70 1214.85 677.26 1210.48
  Q 806.31 1198.35 917.76 1131.50
  C 949.28 1112.59 979.71 1090.78 1007.09 1065.66
  A 2.36 2.34 17.9 0 1 1008.21 1065.09
  Q 1009.50 1064.82 1011.50 1064.81
  Q 1067.52 1064.74 1071.17 1064.82
  Q 1081.10 1065.06 1085.60 1063.20
  C 1094.99 1059.34 1099.12 1049.51 1096.48 1039.77
  Q 1094.00 1030.65 1085.79 1005.99
  Q 1083.73 999.81 1082.17 993.80
  A 1.62 1.59 -32.5 0 1 1082.50 992.36
  C 1118.97 948.84 1149.25 899.87 1172.49 847.51
  C 1191.09 805.62 1204.13 762.38 1212.80 717.80
  C 1223.61 662.23 1225.63 606.15 1220.90 549.47
  C 1216.59 497.77 1204.39 445.20 1185.81 396.41
  Q 1144.13 287.04 1065.68 199.06
  Q 1038.57 168.64 1001.78 138.13
  Q 970.80 112.43 934.57 90.83
  Q 895.42 67.48 861.57 53.00
  C 767.06 12.55 661.61 -3.20 559.23 9.45
  C 512.25 15.25 465.65 26.09 421.29 42.57
  C 408.65 47.27 394.78 53.35 383.72 58.75
  C 366.46 67.18 352.48 73.46 337.96 81.50
  C 312.06 95.84 287.92 111.25 265.51 129.27
  C 241.70 148.41 218.57 168.45 198.01 190.18
  C 146.36 244.76 103.95 308.51 75.15 378.39
  C 46.51 447.88 31.25 522.83 30.55 598.76
  Q 29.90 669.34 44.89 735.63
  Q 53.00 771.51 62.27 798.49
  Q 96.08 896.93 160.99 978.79
  Q 167.03 986.41 171.50 992.11
  A 1.31 1.26 29.4 0 1 171.77 993.00"
/>
<path stroke="#766b4c" vector-effect="non-scaling-stroke" d="
  M 1073.97 967.78
  Q 1082.87 956.97 1091.10 945.35
  C 1115.69 910.64 1137.36 873.31 1153.90 834.06
  Q 1182.20 766.88 1193.57 694.04
  C 1201.97 640.24 1202.33 585.13 1195.49 531.00
  Q 1187.95 471.36 1167.67 415.39
  C 1158.28 389.46 1147.83 364.75 1134.90 339.83
  C 1114.10 299.76 1089.17 261.49 1059.86 227.27
  Q 999.32 156.59 920.20 110.15
  C 891.97 93.59 864.74 80.05 834.05 68.71
  Q 792.20 53.24 749.72 44.07
  Q 709.41 35.38 665.75 32.44
  Q 631.44 30.13 597.70 32.12
  Q 493.95 38.22 400.07 78.00
  C 360.23 94.88 321.61 117.09 286.81 142.80
  Q 238.01 178.84 197.29 225.53
  Q 126.20 307.04 88.28 410.07
  Q 68.96 462.56 60.70 516.38
  C 51.52 576.17 51.41 637.38 60.86 697.11
  C 72.65 771.70 98.44 843.21 137.78 907.59
  Q 157.42 939.74 179.72 967.91
  A 0.50 0.49 -55.5 0 0 180.58 967.75
  Q 187.97 944.00 201.15 905.59
  Q 218.09 856.23 232.13 816.33
  A 2.01 2.00 40.2 0 0 231.99 814.69
  Q 227.10 805.96 219.31 789.70
  Q 184.26 716.57 177.11 635.91
  Q 176.54 629.43 176.40 625.59
  C 176.05 616.53 175.29 607.31 175.26 599.75
  Q 175.12 560.27 178.98 531.24
  Q 186.64 473.70 209.77 417.73
  C 240.19 344.08 291.18 281.24 354.61 233.42
  Q 379.96 214.31 403.98 201.25
  Q 487.19 156.01 582.00 147.55
  Q 614.87 144.62 647.51 145.81
  Q 651.08 145.94 668.51 147.18
  Q 681.49 148.10 689.46 149.10
  Q 769.42 159.11 841.47 195.79
  Q 866.15 208.36 890.66 226.07
  Q 939.93 261.66 978.27 307.72
  Q 1017.14 354.42 1041.32 409.36
  Q 1062.43 457.30 1071.68 508.01
  C 1078.21 543.74 1079.86 580.33 1078.03 617.49
  Q 1073.74 704.96 1038.01 782.77
  C 1032.87 793.95 1028.00 803.01 1021.80 815.07
  A 1.29 1.29 0.0 0 0 1021.73 816.12
  Q 1048.92 893.13 1073.35 967.67
  A 0.36 0.36 0.0 0 0 1073.97 967.78"
/>
<path stroke="#e1ac4a" vector-effect="non-scaling-stroke" d="
  M 303.23 721.50
  Q 304.83 731.10 298.75 738.88"
/>
<path stroke="#f2d090" vector-effect="non-scaling-stroke" d="
  M 298.75 738.88
  Q 299.28 736.91 295.34 739.45"
/>
<path stroke="#a56435" vector-effect="non-scaling-stroke" d="
  M 295.34 739.45
  Q 286.93 740.01 277.62 742.87
  Q 273.08 744.26 270.23 747.42
  Q 268.35 749.52 266.28 755.18
  Q 261.49 768.30 260.92 769.94
  Q 223.11 878.13 214.71 903.20
  Q 195.62 960.16 171.06 1035.05
  C 169.03 1041.25 166.26 1048.22 172.53 1051.66
  Q 174.77 1052.89 182.80 1052.88
  Q 364.87 1052.67 568.29 1052.70
  A 0.76 0.75 -81.0 0 0 569.01 1052.17
  Q 573.33 1038.26 586.04 1030.53
  A 0.44 0.44 0.0 0 0 586.01 1029.76
  Q 583.36 1028.34 580.43 1027.59
  C 569.67 1024.87 559.73 1023.00 548.07 1021.81
  Q 518.47 1018.79 481.50 1018.55
  Q 428.98 1018.20 386.00 1018.78
  Q 301.53 1019.90 216.47 1019.18"
/>
<path stroke="#f2d090" vector-effect="non-scaling-stroke" d="
  M 216.47 1019.18
  Q 244.86 1013.95 279.26 1009.30
  Q 336.44 1001.58 390.50 998.95
  C 435.37 996.78 479.62 998.67 524.13 1006.60
  Q 540.21 1009.47 556.28 1013.97
  Q 563.05 1015.86 566.90 1017.53
  C 574.66 1020.88 581.93 1022.80 589.45 1027.01
  A 0.75 0.73 47.6 0 0 590.12 1027.05
  L 595.80 1024.55
  A 0.10 0.10 0.0 0 0 595.81 1024.37
  Q 582.65 1016.17 575.52 1013.23
  C 569.25 1010.65 558.70 1006.11 551.47 1003.84
  Q 526.64 996.04 503.01 992.30
  C 457.07 985.03 409.38 984.94 362.75 989.28
  Q 318.46 993.41 275.99 1000.96
  Q 247.86 1005.97 242.75 1006.81
  C 236.99 1007.76 231.76 1009.26 226.82 1010.13
  A 0.61 0.61 0.0 0 1 226.15 1009.29
  L 228.34 1004.14
  A 1.64 1.63 3.1 0 1 229.38 1003.21
  C 235.07 1001.49 241.15 1000.40 246.57 999.12
  Q 278.60 991.57 291.26 989.03
  Q 328.23 981.58 358.53 977.86
  Q 371.40 976.27 391.26 974.84
  Q 426.61 972.28 461.38 975.41
  Q 482.88 977.34 501.49 981.23
  C 526.83 986.53 552.76 993.98 575.16 1005.60
  Q 579.98 1008.11 588.95 1013.07
  Q 594.34 1016.04 601.62 1021.75
  A 2.20 2.18 55.6 0 0 603.61 1022.13
  L 607.09 1021.07
  A 0.52 0.51 -32.5 0 0 607.29 1020.19
  Q 588.06 1003.02 565.30 992.03
  C 551.50 985.37 536.79 979.63 521.37 975.36
  C 488.09 966.13 453.37 961.73 418.42 962.37
  Q 403.15 962.65 400.26 962.83
  C 369.09 964.85 338.72 968.65 308.44 975.38
  C 280.35 981.61 260.58 986.88 231.97 994.39
  A 0.60 0.60 0.0 0 1 231.25 993.62
  L 233.88 985.82
  A 1.15 1.14 -88.9 0 1 234.63 985.09
  Q 253.58 979.29 275.31 972.83
  Q 316.97 960.45 359.51 954.21
  C 368.64 952.86 380.65 951.71 389.52 950.92
  Q 418.63 948.33 449.49 950.72
  Q 505.88 955.10 555.51 977.53
  C 574.40 986.07 591.09 996.65 605.76 1009.09
  C 609.50 1012.27 612.38 1016.31 616.26 1019.49
  A 0.69 0.69 0.0 0 0 617.26 1019.36
  Q 617.37 1019.20 617.01 1018.23"
/>
<path stroke="#e1ac4a" vector-effect="non-scaling-stroke" d="
  M 617.01 1018.23
  Q 615.17 1010.51 618.62 1002.69"
/>
<path stroke="#f2d090" vector-effect="non-scaling-stroke" d="
  M 618.62 1002.69
  Q 620.14 1005.84 621.79 1006.49"
/>
<path stroke="#766b4c" vector-effect="non-scaling-stroke" d="
  M 621.79 1006.49
  L 627.24 1017.14
  A 0.34 0.33 43.6 0 0 627.84 1017.13
  Q 629.98 1012.30 632.94 1007.94
  Q 633.09 1007.73 633.13 1007.21
  Q 633.16 1006.81 633.29 1006.46"
/>
<path stroke="#f2d090" vector-effect="non-scaling-stroke" d="
  M 633.29 1006.46
  L 637.93 1000.40"
/>
<path stroke="#e1ac4a" vector-effect="non-scaling-stroke" d="
  M 637.93 1000.40
  C 640.33 1003.99 642.60 1008.57 647.87 1005.18"
/>
<path stroke="#f2d090" vector-effect="non-scaling-stroke" d="
  M 647.87 1005.18
  Q 641.80 1011.56 637.58 1018.78
  A 0.48 0.48 0.0 0 0 638.11 1019.49
  Q 638.75 1019.32 639.27 1018.77
  C 649.28 1008.01 659.60 1000.20 673.57 990.84
  Q 679.64 986.77 699.30 977.37
  Q 715.40 969.66 740.51 962.40
  Q 747.35 960.42 754.21 958.67"
/>
<path stroke="#e1ac4a" vector-effect="non-scaling-stroke" d="
  M 754.21 958.67
  C 765.64 960.39 773.38 961.28 782.69 965.61"
/>
<path stroke="#f2d090" vector-effect="non-scaling-stroke" d="
  M 782.69 965.61
  L 760.57 968.71
  A 0.39 0.38 -40.6 0 0 760.51 969.46
  Q 763.10 970.25 763.61 973.22
  Q 764.46 978.15 764.49 978.69
  A 0.62 0.62 0.0 0 0 765.24 979.26
  Q 772.39 977.77 776.03 977.34
  C 791.77 975.49 809.40 973.73 826.05 973.65
  Q 870.63 973.43 918.00 981.01
  Q 946.84 985.62 973.50 991.54
  Q 996.54 996.66 1025.07 1003.38
  A 1.69 1.66 84.4 0 1 1026.21 1004.33
  L 1028.41 1009.35
  A 0.64 0.64 0.0 0 1 1027.70 1010.24
  Q 991.76 1003.26 951.99 996.79
  Q 904.13 989.01 857.23 986.93
  Q 811.32 984.89 766.44 990.16
  A 0.70 0.69 86.8 0 0 765.83 990.85
  L 765.83 1000.18
  A 1.15 1.15 0.0 0 0 767.11 1001.32
  Q 781.52 999.66 794.25 999.01
  C 861.54 995.56 930.81 1002.88 999.72 1013.49
  Q 1001.84 1013.81 1018.85 1016.16
  Q 1028.39 1017.47 1037.91 1019.31"
/>
<path stroke="#a56435" vector-effect="non-scaling-stroke" d="
  M 1037.91 1019.31
  Q 946.68 1019.80 855.75 1018.86
  Q 796.35 1018.24 767.52 1018.39
  A 0.56 0.55 -0.0 0 0 766.96 1018.94
  L 766.96 1051.72
  A 0.96 0.96 0.0 0 0 767.92 1052.68
  Q 805.40 1052.62 942.00 1052.75
  Q 969.12 1052.78 980.66 1052.71
  C 1008.65 1052.56 1040.01 1052.76 1071.47 1052.95
  Q 1077.53 1052.99 1079.50 1052.36
  Q 1083.83 1050.99 1085.00 1046.78
  Q 1085.72 1044.15 1082.79 1035.16
  Q 1056.67 955.18 1038.08 900.14
  Q 1016.80 837.16 987.65 754.82
  Q 985.86 749.74 984.38 747.91
  Q 981.82 744.75 978.14 743.46
  Q 970.54 740.80 959.81 739.16
  A 0.61 0.60 -87.7 0 0 959.12 739.80
  L 959.17 740.47"
/>
<path stroke="#f2d090" vector-effect="non-scaling-stroke" d="
  M 959.17 740.47
  Q 958.30 737.82 955.11 738.20"
/>
<path stroke="#e1ac4a" vector-effect="non-scaling-stroke" d="
  M 955.11 738.20
  Q 955.02 732.21 953.32 728.64
  Q 948.16 717.81 937.21 709.07
  Q 935.54 707.73 933.41 707.04"
/>
<path stroke="#f2d090" vector-effect="non-scaling-stroke" d="
  M 933.41 707.04
  L 932.38 702.11"
/>
<path stroke="#766b4c" vector-effect="non-scaling-stroke" d="
  M 932.38 702.11
  Q 944.77 713.57 954.36 725.70
  A 1.53 1.52 -14.2 0 0 955.29 726.25
  Q 971.91 729.09 979.72 731.40
  C 986.95 733.53 994.42 739.37 997.17 746.86
  Q 1003.03 762.86 1012.85 790.15
  C 1013.51 791.99 1014.69 794.51 1015.12 796.95
  A 0.45 0.45 0.0 0 0 1015.96 797.07
  C 1034.19 760.74 1047.89 722.75 1055.69 683.35
  Q 1063.75 642.62 1064.49 597.77
  C 1065.62 529.61 1052.01 462.50 1021.97 401.04
  Q 1008.40 373.29 992.82 350.42
  Q 941.34 274.88 863.18 224.07
  Q 852.87 217.37 843.29 212.22
  Q 755.30 164.91 655.52 159.41
  C 580.36 155.26 505.24 168.17 436.86 200.00
  Q 400.77 216.81 367.34 241.64
  C 315.22 280.36 271.29 329.26 241.23 384.93
  Q 205.23 451.61 193.97 528.46
  Q 190.22 554.06 189.73 584.18
  Q 189.27 612.22 191.92 640.06
  Q 197.92 703.08 221.81 761.23
  Q 229.55 780.06 238.15 797.28
  A 0.38 0.37 -49.0 0 0 238.84 797.23
  Q 242.15 787.82 250.31 764.90
  Q 254.43 753.34 254.43 753.32
  Q 257.22 745.33 259.39 742.14
  Q 265.37 733.36 277.39 730.61
  Q 291.30 727.44 298.53 726.28
  A 1.59 1.55 15.7 0 0 299.46 725.77
  L 303.23 721.50"
/>
<path stroke="#818888" vector-effect="non-scaling-stroke" d="
  M 932.38 702.11
  Q 916.32 694.76 896.55 690.93
  Q 839.56 679.90 783.93 690.22
  Q 757.59 695.11 734.97 704.43
  C 703.98 717.20 674.89 736.37 651.61 760.85
  Q 643.30 769.59 637.40 779.37
  Q 633.40 786.00 633.40 793.00
  Q 633.38 835.87 633.44 995.00
  Q 633.44 1000.73 633.29 1006.46"
/>
<path stroke="#818888" vector-effect="non-scaling-stroke" d="
  M 621.79 1006.49
  Q 622.04 900.23 621.99 794.51
  C 621.98 783.29 615.06 774.25 608.06 766.18
  Q 591.81 747.44 571.35 732.63
  Q 516.47 692.91 448.23 685.73
  Q 398.70 680.52 347.58 693.14
  Q 332.23 696.93 322.16 701.92"
/>
<path stroke="#706442" vector-effect="non-scaling-stroke" d="
  M 322.16 701.92
  Q 311.51 711.76 303.23 721.50"
/>
<path stroke="#ecc886" vector-effect="non-scaling-stroke" d="
  M 933.41 707.04
  Q 933.73 709.05 934.24 711.02
  Q 945.59 754.87 958.30 801.44
  Q 966.70 832.20 995.80 943.98
  Q 996.60 947.06 998.10 954.03
  A 0.30 0.30 0.0 0 1 997.70 954.38
  C 947.71 935.76 893.64 924.55 840.96 923.62
  Q 811.28 923.10 781.13 927.63
  Q 738.27 934.07 700.14 952.41
  Q 667.89 967.92 642.95 994.45
  Q 639.75 997.86 637.93 1000.40"
/>
<path stroke="#ecc886" vector-effect="non-scaling-stroke" d="
  M 617.01 1018.23
  Q 609.23 1006.70 599.39 996.96
  Q 594.93 992.54 587.75 986.95
  Q 578.68 979.88 575.36 977.90
  Q 559.44 968.38 557.06 967.17
  Q 524.23 950.56 488.39 943.56
  Q 453.72 936.78 418.99 937.01
  C 370.32 937.32 321.15 946.21 274.13 961.40
  Q 251.25 968.80 237.80 973.43
  A 0.45 0.45 0.0 0 1 237.22 972.89
  L 298.75 738.88"
/>
<path stroke="#ecc886" vector-effect="non-scaling-stroke" d="
  M 618.62 1002.69
  Q 606.76 987.70 591.78 975.98
  Q 580.51 967.17 574.51 963.48
  Q 543.73 944.58 508.58 934.94
  C 480.58 927.26 451.74 923.89 423.03 923.42
  Q 413.87 923.27 402.50 924.04
  C 384.64 925.23 367.54 926.55 348.74 929.75
  Q 313.25 935.78 278.18 946.71
  Q 267.14 950.16 256.04 954.46
  A 0.38 0.38 0.0 0 1 255.53 954.01
  Q 285.87 839.23 317.52 721.51
  Q 318.73 717.01 322.16 701.92"
/>
<path stroke="#ecc886" vector-effect="non-scaling-stroke" d="
  M 955.11 738.20
  Q 955.37 739.91 955.97 741.69
  C 957.55 746.36 958.67 751.14 960.28 755.79
  C 961.77 760.11 962.96 764.92 963.65 769.17
  Q 964.08 771.78 966.10 779.21
  C 969.45 791.47 972.55 804.32 975.31 814.62
  Q 999.04 903.33 1011.41 953.41
  Q 1013.20 960.64 1016.62 972.39
  A 0.61 0.61 0.0 0 1 1015.83 973.14
  C 990.92 964.33 964.68 956.03 937.51 949.52
  Q 885.24 937.01 832.76 937.09
  Q 783.29 937.16 738.54 950.82
  Q 705.79 960.81 680.92 977.18
  Q 665.80 987.12 656.67 995.66
  Q 654.44 997.74 647.87 1005.18"
/>
<path stroke="#b08171" vector-effect="non-scaling-stroke" d="
  M 216.47 1019.18
  L 210.61 1019.55
  A 0.72 0.71 6.8 0 1 209.88 1018.63
  L 295.34 739.45"
/>
<path stroke="#b08171" vector-effect="non-scaling-stroke" d="
  M 959.17 740.47
  L 1043.91 1018.86
  A 0.59 0.59 0.0 0 1 1043.32 1019.62
  L 1037.91 1019.31"
/>
<path stroke="#ecc886" vector-effect="non-scaling-stroke" d="
  M 782.69 965.61
  Q 821.65 960.52 858.31 962.93
  Q 891.00 965.09 929.59 971.93
  C 938.79 973.57 949.31 976.22 957.07 977.86
  C 978.80 982.47 999.46 988.51 1022.15 994.77
  A 0.61 0.61 0.0 0 0 1022.89 994.00
  L 1020.38 985.73
  A 1.02 1.01 -88.9 0 0 1019.74 985.06
  C 1011.18 982.23 1002.57 979.97 993.26 977.07
  Q 964.10 967.98 932.27 961.00
  Q 899.94 953.91 863.74 950.86
  Q 808.02 946.17 754.21 958.67"
/>
<path stroke="#a56435" vector-effect="non-scaling-stroke" d="
  M 757.31 1147.30
  Q 757.23 1141.04 757.19 1133.75
  Q 757.14 1125.72 755.86 1049.19
  C 755.47 1025.75 754.69 1007.09 753.84 982.50
  A 0.80 0.80 0.0 0 0 753.03 981.73
  Q 727.86 981.97 703.66 988.41
  Q 691.18 991.73 681.00 996.12
  A 0.99 0.98 76.0 0 0 680.41 997.11
  Q 682.49 1022.50 682.64 1049.41
  C 682.67 1054.13 683.04 1059.30 683.13 1063.76
  Q 683.76 1092.51 684.86 1147.96
  A 0.36 0.35 75.6 0 0 685.38 1148.27
  Q 704.98 1138.06 717.92 1131.15
  Q 720.31 1129.87 721.46 1130.08
  A 1.82 1.56 58.7 0 1 721.89 1130.22
  L 756.78 1147.63
  A 0.37 0.36 12.9 0 0 757.31 1147.30"
/>
<path stroke="#f2d090" vector-effect="non-scaling-stroke" d="
  M 651.13 1022.19
  A 2.04 2.03 -56.5 0 0 653.12 1021.78
  Q 659.91 1015.79 668.24 1011.48
  A 2.25 2.24 76.2 0 0 669.44 1009.49
  L 669.44 1004.71
  A 0.75 0.75 0.0 0 0 668.23 1004.11
  L 647.28 1020.10
  A 0.48 0.48 0.0 0 0 647.42 1020.94
  L 651.13 1022.19"
/>
<path stroke="#f2d8a8" vector-effect="non-scaling-stroke" d="
  M 658.85 1024.95
  L 663.91 1027.10
  A 1.53 1.49 -44.7 0 0 665.12 1027.09
  L 669.15 1025.32
  A 1.77 1.76 -11.7 0 0 670.22 1023.70
  L 670.22 1018.31
  A 0.42 0.41 -15.0 0 0 669.60 1017.96
  L 658.81 1024.19
  A 0.43 0.42 -48.4 0 0 658.85 1024.95"
/>
<path stroke="#a56435" vector-effect="non-scaling-stroke" d="
  M 669.55 1029.07
  Q 668.91 1029.40 668.81 1029.82
  A 0.72 0.71 29.7 0 0 669.00 1030.48
  Q 670.37 1031.87 670.87 1031.61
  Q 671.37 1031.35 671.02 1029.43
  A 0.72 0.71 -84.6 0 0 670.58 1028.90
  Q 670.18 1028.74 669.55 1029.07"
/>
<path stroke="#a56435" vector-effect="non-scaling-stroke" d="
  M 568.94 1054.18
  Q 568.18 1067.84 580.96 1073.27
  Q 597.43 1080.28 612.06 1081.66
  Q 626.63 1083.04 640.92 1081.88
  C 651.82 1080.99 661.78 1078.01 671.33 1074.54
  A 0.96 0.96 0.0 0 0 671.96 1073.64
  L 671.96 1051.43
  A 0.85 0.84 1.1 0 0 671.14 1050.59
  Q 663.79 1050.34 648.44 1049.32
  C 636.53 1048.53 622.00 1048.56 611.79 1049.15
  Q 594.73 1050.13 572.29 1053.12
  Q 571.33 1053.24 570.72 1053.17
  Q 569.73 1053.05 569.41 1053.30
  A 1.18 1.18 0.0 0 0 568.94 1054.18"
/>
<path stroke="#766b4c" vector-effect="non-scaling-stroke" d="
  M 279.20 1064.86
  Q 281.18 1066.96 289.01 1072.46
  Q 290.48 1073.49 298.89 1079.69
  Q 342.10 1111.53 385.64 1133.60
  C 476.94 1179.87 583.00 1200.19 685.35 1188.23
  Q 716.88 1184.54 748.43 1177.26
  C 831.97 1157.97 908.44 1118.57 974.77 1065.13
  A 0.51 0.51 0.0 0 0 974.45 1064.23
  L 767.91 1064.23
  A 0.28 0.28 0.0 0 0 767.63 1064.51
  C 767.56 1080.01 768.33 1097.35 768.42 1111.49
  Q 768.55 1131.88 768.86 1161.21
  Q 768.89 1163.66 766.07 1164.40
  A 0.75 0.72 49.3 0 1 765.56 1164.35
  L 721.62 1143.09
  A 1.73 1.72 -45.2 0 0 720.08 1143.10
  Q 700.41 1152.96 678.34 1164.63
  C 674.53 1166.65 673.92 1163.20 673.87 1160.50
  Q 673.02 1114.35 672.32 1089.65
  A 0.20 0.20 0.0 0 0 672.04 1089.47
  C 651.43 1097.64 628.48 1098.62 606.51 1095.69
  Q 593.53 1093.96 580.78 1089.02
  C 570.16 1084.90 559.12 1076.73 557.33 1064.60
  A 0.47 0.46 -4.3 0 0 556.87 1064.21
  L 279.48 1064.21
  A 0.39 0.39 0.0 0 0 279.20 1064.86"
/>
<path stroke="#766b4c" vector-effect="non-scaling-stroke" d="
  M 623.10 62.67
  L 602.31 62.67
  A 0.75 0.74 90.0 0 0 601.57 63.42
  L 601.57 66.90
  A 0.82 0.81 89.3 0 0 602.40 67.72
  C 604.35 67.67 607.72 68.21 607.08 70.98
  A 4.72 4.60 -22.5 0 1 606.40 72.56
  L 596.49 87.41
  A 0.45 0.44 -43.9 0 1 595.74 87.40
  Q 593.37 83.53 585.57 71.41
  Q 584.81 70.22 585.19 69.27
  Q 585.75 67.86 589.36 67.62
  A 0.94 0.94 0.0 0 0 590.24 66.68
  L 590.24 63.32
  A 0.70 0.69 90.0 0 0 589.55 62.62
  L 562.90 62.62
  A 1.10 1.09 90.0 0 0 561.81 63.72
  L 561.81 66.64
  A 1.30 1.30 0.0 0 0 563.07 67.94
  Q 567.09 68.04 568.90 70.78
  Q 580.47 88.28 586.37 98.18
  A 1.62 1.61 -43.3 0 1 586.31 99.95
  L 569.25 123.99
  A 3.03 2.99 3.8 0 1 568.15 124.94
  Q 565.43 126.29 562.50 126.62
  A 0.97 0.97 0.0 0 0 561.64 127.58
  L 561.64 130.80
  A 0.71 0.71 0.0 0 0 562.35 131.51
  L 582.98 131.51
  A 0.75 0.75 0.0 0 0 583.73 130.76
  L 583.73 127.61
  A 0.94 0.94 0.0 0 0 582.71 126.67
  Q 581.63 126.76 579.50 125.94
  A 1.83 1.82 -63.3 0 1 578.62 123.26
  L 590.15 105.10
  A 0.63 0.63 0.0 0 1 591.22 105.11
  L 602.30 122.88
  A 2.55 2.53 40.9 0 1 602.48 125.22
  Q 602.03 126.26 598.21 126.57
  A 0.88 0.87 -2.5 0 0 597.41 127.44
  L 597.41 130.78
  A 0.71 0.71 0.0 0 0 598.12 131.49
  L 625.30 131.49
  A 0.53 0.52 -0.0 0 0 625.83 130.97
  L 625.83 127.42
  A 0.75 0.74 3.5 0 0 625.17 126.68
  Q 621.14 126.24 619.26 123.44
  Q 612.06 112.68 600.16 94.05
  A 0.91 0.91 0.0 0 1 600.19 93.03
  L 615.81 71.00
  A 2.95 2.87 -3.6 0 1 616.30 70.46
  Q 619.22 68.00 623.07 67.56
  A 0.60 0.59 -3.3 0 0 623.60 66.97
  L 623.60 63.17
  A 0.50 0.50 0.0 0 0 623.10 62.67"
/>
<path stroke="#766b4c" vector-effect="non-scaling-stroke" d="
  M 635.50 97.15
  Q 635.49 104.35 635.45 122.00
  C 635.45 126.14 633.01 126.39 629.56 126.85
  A 0.70 0.70 0.0 0 0 628.95 127.54
  L 628.95 131.05
  A 0.51 0.51 0.0 0 0 629.46 131.56
  L 655.86 131.56
  A 0.57 0.56 -0.0 0 0 656.43 131.00
  L 656.43 127.20
  A 0.59 0.58 0.0 0 0 655.84 126.62
  Q 653.43 126.65 651.58 125.84
  A 3.21 3.20 -79.2 0 1 649.66 123.01
  Q 649.61 121.60 649.63 97.16
  Q 649.64 72.72 649.69 71.31
  A 3.21 3.20 79.2 0 1 651.61 68.48
  Q 653.46 67.67 655.87 67.70
  A 0.59 0.58 0.1 0 0 656.46 67.12
  L 656.47 63.32
  A 0.57 0.56 0.1 0 0 655.90 62.76
  L 629.50 62.73
  A 0.51 0.51 0.0 0 0 628.99 63.24
  L 628.98 66.75
  A 0.70 0.70 0.0 0 0 629.59 67.44
  C 633.04 67.91 635.48 68.16 635.48 72.30
  Q 635.50 89.96 635.50 97.15"
/>
<path stroke="#766b4c" vector-effect="non-scaling-stroke" d="
  M 668.15 97.18
  Q 668.12 120.55 667.97 123.00
  C 667.75 126.35 664.48 126.51 662.05 126.68
  A 0.72 0.72 0.0 0 0 661.38 127.40
  L 661.38 130.81
  A 0.72 0.72 0.0 0 0 662.09 131.53
  Q 668.38 131.58 675.12 131.63
  Q 681.85 131.59 688.14 131.56
  A 0.72 0.72 0.0 0 0 688.86 130.84
  L 688.87 127.43
  A 0.72 0.72 0.0 0 0 688.20 126.71
  C 685.77 126.53 682.50 126.37 682.29 123.01
  Q 682.14 120.56 682.16 97.20
  Q 682.19 73.84 682.35 71.39
  C 682.56 68.04 685.83 67.88 688.26 67.71
  A 0.72 0.72 0.0 0 0 688.93 66.99
  L 688.93 63.58
  A 0.72 0.72 0.0 0 0 688.22 62.86
  Q 681.93 62.81 675.19 62.76
  Q 668.46 62.79 662.17 62.83
  A 0.72 0.72 0.0 0 0 661.45 63.55
  L 661.45 66.96
  A 0.72 0.72 0.0 0 0 662.11 67.68
  C 664.54 67.85 667.81 68.02 668.02 71.37
  Q 668.18 73.82 668.15 97.18"
/>
<path stroke="#766b4c" vector-effect="non-scaling-stroke" d="
  M 408.3268 106.5547
  A 0.80 0.80 0.0 0 0 407.2657 106.1622
  L 393.4746 112.5054
  A 0.80 0.80 0.0 0 0 393.0821 113.5665
  L 421.3132 174.9453
  A 0.80 0.80 0.0 0 0 422.3743 175.3378
  L 436.1654 168.9946
  A 0.80 0.80 0.0 0 0 436.5579 167.9335
  L 408.3268 106.5547"
/>
<path stroke="#766b4c" vector-effect="non-scaling-stroke" d="
  M 864.0213 113.8623
  A 0.87 0.87 0.0 0 0 863.6066 112.7040
  L 850.0092 106.2765
  A 0.87 0.87 0.0 0 0 848.8508 106.6913
  L 819.9187 167.8977
  A 0.87 0.87 0.0 0 0 820.3334 169.0560
  L 833.9308 175.4835
  A 0.87 0.87 0.0 0 0 835.0892 175.0687
  L 864.0213 113.8623"
/>
<path stroke="#706442" vector-effect="non-scaling-stroke" d="
  M 1001.3842 214.3483
  A 0.85 0.85 0.0 0 0 1001.3758 213.1462
  L 995.1243 206.9813
  A 0.85 0.85 0.0 0 0 993.9222 206.9897
  L 957.2558 244.1717
  A 0.85 0.85 0.0 0 0 957.2642 245.3738
  L 963.5157 251.5387
  A 0.85 0.85 0.0 0 0 964.7178 251.5303
  L 1001.3842 214.3483"
/>
<path stroke="#706442" vector-effect="non-scaling-stroke" d="
  M 260.4369 208.2837
  A 0.78 0.78 0.0 0 0 259.3338 208.2760
  L 252.9968 214.5252
  A 0.78 0.78 0.0 0 0 252.9891 215.6282
  L 289.5431 252.6963
  A 0.78 0.78 0.0 0 0 290.6462 252.7040
  L 296.9832 246.4548
  A 0.78 0.78 0.0 0 0 296.9909 245.3518
  L 260.4369 208.2837"
/>
<path stroke="#766b4c" vector-effect="non-scaling-stroke" d="
  M 1089.2695 319.7999
  A 0.76 0.76 0.0 0 0 1088.2353 319.5072
  L 1029.3306 352.4280
  A 0.76 0.76 0.0 0 0 1029.0379 353.4622
  L 1036.5705 366.9401
  A 0.76 0.76 0.0 0 0 1037.6047 367.2328
  L 1096.5094 334.3120
  A 0.76 0.76 0.0 0 0 1096.8021 333.2778
  L 1089.2695 319.7999"
/>
<path stroke="#766b4c" vector-effect="non-scaling-stroke" d="
  M 224.9624 354.6183
  A 0.91 0.91 0.0 0 0 224.6119 353.3800
  L 165.8119 320.5178
  A 0.91 0.91 0.0 0 0 164.5736 320.8682
  L 157.1776 334.1017
  A 0.91 0.91 0.0 0 0 157.5281 335.3400
  L 216.3281 368.2022
  A 0.91 0.91 0.0 0 0 217.5664 367.8518
  L 224.9624 354.6183"
/>
<path stroke="#766b4c" vector-effect="non-scaling-stroke" d="
  M 1139.1136 448.6982
  A 0.82 0.82 0.0 0 0 1138.1093 448.1184
  L 1089.8131 461.0594
  A 0.82 0.82 0.0 0 0 1089.2332 462.0637
  L 1091.5264 470.6218
  A 0.82 0.82 0.0 0 0 1092.5307 471.2016
  L 1140.8269 458.2606
  A 0.82 0.82 0.0 0 0 1141.4068 457.2563
  L 1139.1136 448.6982"
/>
<path stroke="#706442" vector-effect="non-scaling-stroke" d="
  M 165.0588 463.5819
  A 0.76 0.76 0.0 0 0 164.5279 462.6473
  L 116.1110 449.3111
  A 0.76 0.76 0.0 0 0 115.1765 449.8420
  L 112.7812 458.5381
  A 0.76 0.76 0.0 0 0 113.3121 459.4727
  L 161.7290 472.8089
  A 0.76 0.76 0.0 0 0 162.6635 472.2780
  L 165.0588 463.5819"
/>
<path stroke="#766b4c" vector-effect="non-scaling-stroke" d="
  M 81.38 583.89
  Q 81.34 609.58 81.23 612.58
  A 3.09 3.09 0.0 0 1 79.03 615.44
  L 75.47 616.52
  A 0.96 0.94 -8.8 0 0 74.80 617.42
  L 74.80 620.33
  A 0.86 0.85 0.1 0 0 75.65 621.19
  Q 81.61 621.18 88.04 621.21
  Q 94.47 621.21 100.43 621.23
  A 0.86 0.85 0.1 0 0 101.29 620.38
  L 101.29 617.46
  A 0.96 0.94 9.0 0 0 100.63 616.56
  L 97.07 615.47
  A 3.09 3.09 0.0 0 1 94.88 612.60
  Q 94.78 609.60 94.83 583.91
  Q 94.87 558.23 94.98 555.23
  A 3.09 3.09 0.0 0 1 97.18 552.37
  L 100.74 551.29
  A 0.96 0.94 -8.8 0 0 101.41 550.39
  L 101.41 547.47
  A 0.86 0.85 0.1 0 0 100.56 546.62
  Q 94.60 546.62 88.17 546.60
  Q 81.74 546.60 75.78 546.58
  A 0.86 0.85 0.1 0 0 74.92 547.43
  L 74.91 550.34
  A 0.96 0.94 9.0 0 0 75.58 551.25
  L 79.14 552.34
  A 3.09 3.09 0.0 0 1 81.33 555.21
  Q 81.42 558.20 81.38 583.89"
/>
<path stroke="#766b4c" vector-effect="non-scaling-stroke" d="
  M 104.62 550.82
  A 0.89 0.88 -87.9 0 0 105.44 551.71
  C 108.53 551.96 110.93 552.64 112.47 555.54
  Q 114.12 558.68 129.13 584.88
  A 1.04 1.02 -44.5 0 1 129.11 585.94
  L 111.78 613.22
  A 0.76 0.66 85.9 0 1 111.66 613.38
  Q 109.19 615.94 105.45 616.15
  A 0.92 0.91 88.4 0 0 104.59 617.07
  L 104.59 620.52
  A 0.63 0.63 0.0 0 0 105.22 621.15
  L 125.57 621.15
  A 0.75 0.74 0.0 0 0 126.32 620.41
  L 126.32 617.16
  A 0.67 0.67 0.0 0 0 125.76 616.50
  Q 121.52 615.78 120.81 614.55
  A 2.80 2.80 0.0 0 1 120.83 611.72
  L 132.50 592.23
  A 0.61 0.61 0.0 0 1 133.56 592.25
  Q 138.52 601.34 144.48 612.52
  C 146.23 615.81 142.95 616.13 140.62 616.18
  A 1.03 1.03 0.0 0 0 139.62 617.21
  L 139.62 620.35
  A 0.81 0.81 0.0 0 0 140.43 621.16
  L 166.01 621.16
  A 0.71 0.70 -90.0 0 0 166.71 620.45
  L 166.71 617.14
  A 0.71 0.71 0.0 0 0 166.09 616.44
  Q 163.10 616.07 160.81 613.74
  A 2.68 2.67 8.0 0 1 160.37 613.16
  L 142.09 580.52
  A 0.97 0.97 0.0 0 1 142.09 579.58
  C 145.85 572.71 151.70 564.77 156.92 556.42
  C 158.74 553.51 161.72 552.12 164.73 551.91
  A 1.25 1.24 -2.0 0 0 165.89 550.67
  L 165.89 547.65
  A 1.16 1.16 0.0 0 0 164.73 546.49
  L 144.38 546.49
  A 0.72 0.72 0.0 0 0 143.66 547.21
  L 143.66 550.89
  A 0.81 0.81 0.0 0 0 144.53 551.70
  Q 146.73 551.53 148.54 552.39
  A 1.89 1.89 0.0 0 1 149.37 555.04
  L 138.78 573.39
  A 0.47 0.47 0.0 0 1 137.97 573.39
  Q 132.35 563.86 128.70 556.28
  C 126.98 552.72 128.62 551.66 132.08 551.75
  A 0.80 0.79 -89.0 0 0 132.90 550.95
  L 132.90 547.16
  A 0.67 0.67 0.0 0 0 132.23 546.49
  L 105.27 546.49
  A 0.65 0.65 0.0 0 0 104.62 547.14
  L 104.62 550.82"
/>
<path stroke="#706442" vector-effect="non-scaling-stroke" d="
  M 1098.26 583.87
  Q 1098.22 609.58 1098.12 612.58
  A 3.10 3.09 82.6 0 1 1095.92 615.45
  L 1092.35 616.53
  A 0.96 0.94 -8.8 0 0 1091.68 617.43
  L 1091.68 620.35
  A 0.86 0.85 0.1 0 0 1092.54 621.20
  Q 1098.50 621.20 1104.94 621.22
  Q 1111.37 621.21 1117.33 621.24
  A 0.86 0.85 0.1 0 0 1118.19 620.39
  L 1118.20 617.46
  A 0.96 0.94 9.0 0 0 1117.53 616.56
  L 1113.97 615.47
  A 3.10 3.09 -82.4 0 1 1111.78 612.60
  Q 1111.68 609.60 1111.72 583.89
  Q 1111.76 558.18 1111.86 555.18
  A 3.10 3.09 82.6 0 1 1114.06 552.32
  L 1117.63 551.24
  A 0.96 0.94 -8.8 0 0 1118.30 550.34
  L 1118.30 547.41
  A 0.86 0.85 0.1 0 0 1117.44 546.56
  Q 1111.48 546.57 1105.04 546.54
  Q 1098.61 546.55 1092.65 546.52
  A 0.86 0.85 0.1 0 0 1091.79 547.38
  L 1091.78 550.30
  A 0.96 0.94 9.0 0 0 1092.45 551.20
  L 1096.01 552.29
  A 3.10 3.09 -82.4 0 1 1098.20 555.16
  Q 1098.30 558.16 1098.26 583.87"
/>
<path stroke="#766b4c" vector-effect="non-scaling-stroke" d="
  M 1129.31 583.87
  Q 1129.28 609.56 1129.18 612.56
  A 3.09 3.09 0.0 0 1 1126.98 615.42
  L 1123.42 616.50
  A 0.96 0.94 -8.9 0 0 1122.75 617.40
  L 1122.75 620.32
  A 0.86 0.85 0.1 0 0 1123.61 621.17
  Q 1129.57 621.16 1136.00 621.19
  Q 1142.43 621.18 1148.38 621.20
  A 0.86 0.85 0.0 0 0 1149.24 620.35
  L 1149.25 617.43
  A 0.96 0.94 9.0 0 0 1148.58 616.53
  L 1145.02 615.44
  A 3.09 3.09 0.0 0 1 1142.83 612.57
  Q 1142.73 609.57 1142.76 583.88
  Q 1142.79 558.19 1142.89 555.20
  A 3.09 3.09 0.0 0 1 1145.09 552.33
  L 1148.65 551.25
  A 0.96 0.94 -8.9 0 0 1149.32 550.35
  L 1149.32 547.43
  A 0.86 0.85 0.1 0 0 1148.47 546.58
  Q 1142.51 546.59 1136.08 546.57
  Q 1129.65 546.57 1123.69 546.55
  A 0.86 0.85 0.0 0 0 1122.83 547.40
  L 1122.82 550.32
  A 0.96 0.94 9.0 0 0 1123.49 551.23
  L 1127.05 552.31
  A 3.09 3.09 0.0 0 1 1129.24 555.18
  Q 1129.34 558.18 1129.31 583.87"
/>
<path stroke="#766b4c" vector-effect="non-scaling-stroke" d="
  M 1160.42 583.89
  Q 1160.42 609.57 1160.32 612.57
  A 3.09 3.09 0.0 0 1 1158.12 615.43
  L 1154.56 616.51
  A 0.96 0.94 -8.9 0 0 1153.89 617.41
  L 1153.89 620.33
  A 0.86 0.85 0.0 0 0 1154.75 621.18
  Q 1160.71 621.17 1167.13 621.19
  Q 1173.56 621.18 1179.52 621.19
  A 0.86 0.85 -0.0 0 0 1180.38 620.34
  L 1180.38 617.42
  A 0.96 0.94 8.9 0 0 1179.71 616.52
  L 1176.16 615.44
  A 3.09 3.09 0.0 0 1 1173.96 612.57
  Q 1173.86 609.57 1173.87 583.89
  Q 1173.88 558.21 1173.98 555.21
  A 3.09 3.09 0.0 0 1 1176.18 552.35
  L 1179.73 551.27
  A 0.96 0.94 -8.9 0 0 1180.40 550.36
  L 1180.40 547.45
  A 0.86 0.85 0.0 0 0 1179.54 546.59
  Q 1173.59 546.61 1167.16 546.59
  Q 1160.73 546.60 1154.77 546.59
  A 0.86 0.85 -0.0 0 0 1153.92 547.44
  L 1153.91 550.36
  A 0.96 0.94 8.9 0 0 1154.58 551.26
  L 1158.14 552.34
  A 3.09 3.09 0.0 0 1 1160.33 555.21
  Q 1160.43 558.20 1160.42 583.89"
/>
<path stroke="#706442" vector-effect="non-scaling-stroke" d="
  M 1135.9367 758.9211
  A 0.86 0.86 0.0 0 0 1135.4150 757.8225
  L 1087.8411 740.8822
  A 0.86 0.86 0.0 0 0 1086.7425 741.4038
  L 1083.7033 749.9389
  A 0.86 0.86 0.0 0 0 1084.2250 751.0375
  L 1131.7989 767.9778
  A 0.86 0.86 0.0 0 0 1132.8975 767.4562
  L 1135.9367 758.9211"
/>
<path stroke="#766b4c" vector-effect="non-scaling-stroke" d="
  M 167.6046 742.1571
  A 0.75 0.75 0.0 0 0 166.6465 741.7021
  L 118.7711 758.7498
  A 0.75 0.75 0.0 0 0 118.3162 759.7079
  L 121.3554 768.2429
  A 0.75 0.75 0.0 0 0 122.3135 768.6979
  L 170.1889 751.6502
  A 0.75 0.75 0.0 0 0 170.6438 750.6921
  L 167.6046 742.1571"
/>
<path stroke="#766b4c" vector-effect="non-scaling-stroke" d="
  M 658.47 617.17
  L 707.04 637.83
  A 0.42 0.42 0.0 0 0 707.63 637.44
  L 707.63 572.40
  A 0.83 0.82 -78.8 0 0 707.13 571.64
  L 658.42 550.91
  A 0.82 0.82 0.0 0 1 657.91 550.15
  L 657.91 416.63
  A 0.52 0.51 90.0 0 1 658.42 416.11
  L 807.47 416.11
  A 0.43 0.43 0.0 0 0 807.90 415.68
  L 807.90 353.52
  A 0.34 0.34 0.0 0 0 807.56 353.18
  L 658.33 353.18
  A 0.24 0.24 0.0 0 1 658.09 352.94
  L 658.09 301.20
  A 0.46 0.46 0.0 0 1 658.55 300.74
  L 700.01 300.74
  A 0.42 0.42 0.0 0 0 700.43 300.32
  L 700.43 240.66
  A 0.53 0.52 90.0 0 0 699.91 240.13
  L 658.98 240.13
  A 0.56 0.55 0.0 0 1 658.42 239.58
  L 658.42 196.59
  A 0.49 0.48 90.0 0 0 657.94 196.10
  L 597.94 196.10
  A 0.79 0.79 0.0 0 0 597.15 196.89
  L 597.15 239.60
  A 0.53 0.53 0.0 0 1 596.62 240.13
  L 556.40 240.13
  A 0.55 0.55 0.0 0 0 555.85 240.68
  L 555.85 300.15
  A 0.60 0.60 0.0 0 0 556.45 300.75
  L 596.56 300.75
  A 0.62 0.62 0.0 0 1 597.18 301.37
  L 597.18 352.66
  A 0.50 0.50 0.0 0 1 596.68 353.16
  L 446.56 353.16
  A 0.46 0.45 -90.0 0 0 446.11 353.62
  L 446.11 415.66
  A 0.44 0.44 0.0 0 0 446.55 416.10
  L 596.72 416.10
  A 0.43 0.43 0.0 0 1 597.15 416.53
  L 597.15 524.18
  A 0.49 0.48 11.7 0 1 596.47 524.62
  L 546.85 503.51
  A 0.41 0.40 -78.6 0 0 546.29 503.89
  L 546.29 569.08
  A 0.82 0.81 -78.6 0 0 546.78 569.83
  L 596.41 590.94
  A 1.20 1.19 -78.4 0 1 597.13 592.04
  L 597.13 736.98
  A 1.34 1.34 0.0 0 0 597.59 737.99
  Q 613.80 752.22 627.03 769.05
  A 0.77 0.76 44.2 0 0 628.24 769.04
  Q 641.42 751.58 657.49 737.73
  A 1.14 1.14 0.0 0 0 657.88 736.87
  L 657.88 617.56
  A 0.42 0.42 0.0 0 1 658.47 617.17"
/>
<path stroke="#a56435" vector-effect="non-scaling-stroke" d="
  M 727.02 1064.54
  A 0.69 0.69 0.0 0 1 727.71 1063.85
  L 745.04 1063.85
  A 0.69 0.69 0.0 0 0 745.73 1063.16
  L 745.73 1050.76
  A 0.69 0.69 0.0 0 0 745.04 1050.07
  L 727.15 1050.07
  A 0.69 0.69 0.0 0 1 726.46 1049.38
  L 726.46 1027.26
  A 0.69 0.69 0.0 0 0 725.77 1026.57
  L 713.03 1026.57
  A 0.69 0.69 0.0 0 0 712.34 1027.26
  L 712.34 1049.42
  A 0.69 0.69 0.0 0 1 711.65 1050.11
  L 694.14 1050.11
  A 0.69 0.69 0.0 0 0 693.45 1050.80
  L 693.45 1063.26
  A 0.69 0.69 0.0 0 0 694.14 1063.95
  L 712.38 1063.95
  A 0.69 0.69 0.0 0 1 713.07 1064.64
  L 713.07 1101.78
  A 0.69 0.69 0.0 0 0 713.76 1102.47
  L 726.33 1102.47
  A 0.69 0.69 0.0 0 0 727.02 1101.78
  L 727.02 1064.54"
/>
<path stroke="#766b4c" vector-effect="non-scaling-stroke" d="
  M 629.18 1110.00
  L 611.47 1110.00
  A 0.84 0.84 0.0 0 0 610.63 1110.84
  L 610.63 1113.80
  A 0.88 0.88 0.0 0 0 611.55 1114.68
  Q 613.42 1114.61 614.93 1115.30
  A 2.69 2.69 0.0 0 1 616.35 1118.60
  L 603.57 1156.51
  A 0.37 0.37 0.0 0 1 602.87 1156.51
  Q 595.16 1132.30 590.70 1118.55
  C 589.69 1115.45 592.32 1114.87 594.69 1114.57
  A 0.91 0.90 86.4 0 0 595.48 1113.67
  L 595.48 1110.70
  A 0.80 0.80 0.0 0 0 594.68 1109.90
  L 572.37 1109.90
  A 1.43 1.43 0.0 0 0 570.94 1111.33
  L 570.94 1113.16
  A 1.73 1.72 -88.8 0 0 572.59 1114.89
  C 576.69 1115.08 577.00 1117.91 578.33 1121.82
  Q 589.19 1153.50 596.06 1175.15
  A 0.92 0.90 -8.7 0 0 596.93 1175.78
  L 602.61 1175.78
  A 1.06 1.05 -81.4 0 0 603.62 1175.03
  Q 610.91 1152.21 621.79 1122.04
  C 623.16 1118.25 624.39 1114.88 629.15 1114.53
  A 0.71 0.71 0.0 0 0 629.81 1113.82
  L 629.81 1110.63
  A 0.63 0.63 0.0 0 0 629.18 1110.00"
/>
<path stroke="#766b4c" vector-effect="non-scaling-stroke" d="
  M 639.19 1142.75
  Q 639.17 1164.53 639.13 1167.25
  C 639.09 1170.30 636.23 1170.73 633.87 1170.92
  A 0.93 0.93 0.0 0 0 633.02 1171.85
  L 633.02 1174.72
  A 0.84 0.83 89.2 0 0 633.87 1175.56
  Q 639.35 1175.41 645.41 1175.48
  Q 651.46 1175.42 656.94 1175.57
  A 0.84 0.83 -89.1 0 0 657.79 1174.74
  L 657.80 1171.87
  A 0.93 0.93 0.0 0 0 656.95 1170.94
  C 654.59 1170.75 651.73 1170.31 651.69 1167.26
  Q 651.66 1164.54 651.68 1142.76
  Q 651.70 1120.97 651.73 1118.26
  C 651.77 1115.20 654.63 1114.77 656.99 1114.58
  A 0.93 0.93 0.0 0 0 657.84 1113.65
  L 657.84 1110.78
  A 0.84 0.83 89.2 0 0 656.99 1109.95
  Q 651.51 1110.10 645.46 1110.03
  Q 639.41 1110.09 633.93 1109.93
  A 0.84 0.83 -89.1 0 0 633.07 1110.76
  L 633.07 1113.63
  A 0.93 0.93 0.0 0 0 633.92 1114.57
  C 636.28 1114.76 639.14 1115.19 639.17 1118.25
  Q 639.20 1120.96 639.19 1142.75"
/>
</g>
<path fill="#fcfcfc" d="
  M 1254.00 0.00
  L 1254.00 1254.00
  L 0.00 1254.00
  L 0.00 0.00
  L 1254.00 0.00
  Z
  M 171.77 993.00
  Q 171.62 995.09 171.03 996.76
  Q 169.48 1001.20 158.36 1036.11
  C 155.21 1045.99 156.26 1056.88 166.04 1062.00
  Q 171.04 1064.61 175.03 1064.71
  Q 181.45 1064.87 245.82 1064.76
  A 4.36 4.34 65.8 0 1 248.72 1065.87
  Q 286.78 1100.16 330.40 1127.07
  Q 366.32 1149.23 401.55 1164.92
  Q 486.77 1202.90 579.75 1210.62
  Q 630.70 1214.85 677.26 1210.48
  Q 806.31 1198.35 917.76 1131.50
  C 949.28 1112.59 979.71 1090.78 1007.09 1065.66
  A 2.36 2.34 17.9 0 1 1008.21 1065.09
  Q 1009.50 1064.82 1011.50 1064.81
  Q 1067.52 1064.74 1071.17 1064.82
  Q 1081.10 1065.06 1085.60 1063.20
  C 1094.99 1059.34 1099.12 1049.51 1096.48 1039.77
  Q 1094.00 1030.65 1085.79 1005.99
  Q 1083.73 999.81 1082.17 993.80
  A 1.62 1.59 -32.5 0 1 1082.50 992.36
  C 1118.97 948.84 1149.25 899.87 1172.49 847.51
  C 1191.09 805.62 1204.13 762.38 1212.80 717.80
  C 1223.61 662.23 1225.63 606.15 1220.90 549.47
  C 1216.59 497.77 1204.39 445.20 1185.81 396.41
  Q 1144.13 287.04 1065.68 199.06
  Q 1038.57 168.64 1001.78 138.13
  Q 970.80 112.43 934.57 90.83
  Q 895.42 67.48 861.57 53.00
  C 767.06 12.55 661.61 -3.20 559.23 9.45
  C 512.25 15.25 465.65 26.09 421.29 42.57
  C 408.65 47.27 394.78 53.35 383.72 58.75
  C 366.46 67.18 352.48 73.46 337.96 81.50
  C 312.06 95.84 287.92 111.25 265.51 129.27
  C 241.70 148.41 218.57 168.45 198.01 190.18
  C 146.36 244.76 103.95 308.51 75.15 378.39
  C 46.51 447.88 31.25 522.83 30.55 598.76
  Q 29.90 669.34 44.89 735.63
  Q 53.00 771.51 62.27 798.49
  Q 96.08 896.93 160.99 978.79
  Q 167.03 986.41 171.50 992.11
  A 1.31 1.26 29.4 0 1 171.77 993.00
  Z"
/>
<path fill="#e7b354" d="
  M 171.50 992.11
  Q 167.03 986.41 160.99 978.79
  Q 96.08 896.93 62.27 798.49
  Q 53.00 771.51 44.89 735.63
  Q 29.90 669.34 30.55 598.76
  C 31.25 522.83 46.51 447.88 75.15 378.39
  C 103.95 308.51 146.36 244.76 198.01 190.18
  C 218.57 168.45 241.70 148.41 265.51 129.27
  C 287.92 111.25 312.06 95.84 337.96 81.50
  C 352.48 73.46 366.46 67.18 383.72 58.75
  C 394.78 53.35 408.65 47.27 421.29 42.57
  C 465.65 26.09 512.25 15.25 559.23 9.45
  C 661.61 -3.20 767.06 12.55 861.57 53.00
  Q 895.42 67.48 934.57 90.83
  Q 970.80 112.43 1001.78 138.13
  Q 1038.57 168.64 1065.68 199.06
  Q 1144.13 287.04 1185.81 396.41
  C 1204.39 445.20 1216.59 497.77 1220.90 549.47
  C 1225.63 606.15 1223.61 662.23 1212.80 717.80
  C 1204.13 762.38 1191.09 805.62 1172.49 847.51
  C 1149.25 899.87 1118.97 948.84 1082.50 992.36
  A 1.62 1.59 -32.5 0 0 1082.17 993.80
  Q 1083.73 999.81 1085.79 1005.99
  Q 1094.00 1030.65 1096.48 1039.77
  C 1099.12 1049.51 1094.99 1059.34 1085.60 1063.20
  Q 1081.10 1065.06 1071.17 1064.82
  Q 1067.52 1064.74 1011.50 1064.81
  Q 1009.50 1064.82 1008.21 1065.09
  A 2.36 2.34 17.9 0 0 1007.09 1065.66
  C 979.71 1090.78 949.28 1112.59 917.76 1131.50
  Q 806.31 1198.35 677.26 1210.48
  Q 630.70 1214.85 579.75 1210.62
  Q 486.77 1202.90 401.55 1164.92
  Q 366.32 1149.23 330.40 1127.07
  Q 286.78 1100.16 248.72 1065.87
  A 4.36 4.34 65.8 0 0 245.82 1064.76
  Q 181.45 1064.87 175.03 1064.71
  Q 171.04 1064.61 166.04 1062.00
  C 156.26 1056.88 155.21 1045.99 158.36 1036.11
  Q 169.48 1001.20 171.03 996.76
  Q 171.62 995.09 171.77 993.00
  A 1.31 1.26 29.4 0 0 171.50 992.11
  Z
  M 1073.97 967.78
  Q 1082.87 956.97 1091.10 945.35
  C 1115.69 910.64 1137.36 873.31 1153.90 834.06
  Q 1182.20 766.88 1193.57 694.04
  C 1201.97 640.24 1202.33 585.13 1195.49 531.00
  Q 1187.95 471.36 1167.67 415.39
  C 1158.28 389.46 1147.83 364.75 1134.90 339.83
  C 1114.10 299.76 1089.17 261.49 1059.86 227.27
  Q 999.32 156.59 920.20 110.15
  C 891.97 93.59 864.74 80.05 834.05 68.71
  Q 792.20 53.24 749.72 44.07
  Q 709.41 35.38 665.75 32.44
  Q 631.44 30.13 597.70 32.12
  Q 493.95 38.22 400.07 78.00
  C 360.23 94.88 321.61 117.09 286.81 142.80
  Q 238.01 178.84 197.29 225.53
  Q 126.20 307.04 88.28 410.07
  Q 68.96 462.56 60.70 516.38
  C 51.52 576.17 51.41 637.38 60.86 697.11
  C 72.65 771.70 98.44 843.21 137.78 907.59
  Q 157.42 939.74 179.72 967.91
  A 0.50 0.49 -55.5 0 0 180.58 967.75
  Q 187.97 944.00 201.15 905.59
  Q 218.09 856.23 232.13 816.33
  A 2.01 2.00 40.2 0 0 231.99 814.69
  Q 227.10 805.96 219.31 789.70
  Q 184.26 716.57 177.11 635.91
  Q 176.54 629.43 176.40 625.59
  C 176.05 616.53 175.29 607.31 175.26 599.75
  Q 175.12 560.27 178.98 531.24
  Q 186.64 473.70 209.77 417.73
  C 240.19 344.08 291.18 281.24 354.61 233.42
  Q 379.96 214.31 403.98 201.25
  Q 487.19 156.01 582.00 147.55
  Q 614.87 144.62 647.51 145.81
  Q 651.08 145.94 668.51 147.18
  Q 681.49 148.10 689.46 149.10
  Q 769.42 159.11 841.47 195.79
  Q 866.15 208.36 890.66 226.07
  Q 939.93 261.66 978.27 307.72
  Q 1017.14 354.42 1041.32 409.36
  Q 1062.43 457.30 1071.68 508.01
  C 1078.21 543.74 1079.86 580.33 1078.03 617.49
  Q 1073.74 704.96 1038.01 782.77
  C 1032.87 793.95 1028.00 803.01 1021.80 815.07
  A 1.29 1.29 0.0 0 0 1021.73 816.12
  Q 1048.92 893.13 1073.35 967.67
  A 0.36 0.36 0.0 0 0 1073.97 967.78
  Z
  M 303.23 721.50
  Q 304.83 731.10 298.75 738.88
  Q 299.28 736.91 295.34 739.45
  Q 286.93 740.01 277.62 742.87
  Q 273.08 744.26 270.23 747.42
  Q 268.35 749.52 266.28 755.18
  Q 261.49 768.30 260.92 769.94
  Q 223.11 878.13 214.71 903.20
  Q 195.62 960.16 171.06 1035.05
  C 169.03 1041.25 166.26 1048.22 172.53 1051.66
  Q 174.77 1052.89 182.80 1052.88
  Q 364.87 1052.67 568.29 1052.70
  A 0.76 0.75 -81.0 0 0 569.01 1052.17
  Q 573.33 1038.26 586.04 1030.53
  A 0.44 0.44 0.0 0 0 586.01 1029.76
  Q 583.36 1028.34 580.43 1027.59
  C 569.67 1024.87 559.73 1023.00 548.07 1021.81
  Q 518.47 1018.79 481.50 1018.55
  Q 428.98 1018.20 386.00 1018.78
  Q 301.53 1019.90 216.47 1019.18
  Q 244.86 1013.95 279.26 1009.30
  Q 336.44 1001.58 390.50 998.95
  C 435.37 996.78 479.62 998.67 524.13 1006.60
  Q 540.21 1009.47 556.28 1013.97
  Q 563.05 1015.86 566.90 1017.53
  C 574.66 1020.88 581.93 1022.80 589.45 1027.01
  A 0.75 0.73 47.6 0 0 590.12 1027.05
  L 595.80 1024.55
  A 0.10 0.10 0.0 0 0 595.81 1024.37
  Q 582.65 1016.17 575.52 1013.23
  C 569.25 1010.65 558.70 1006.11 551.47 1003.84
  Q 526.64 996.04 503.01 992.30
  C 457.07 985.03 409.38 984.94 362.75 989.28
  Q 318.46 993.41 275.99 1000.96
  Q 247.86 1005.97 242.75 1006.81
  C 236.99 1007.76 231.76 1009.26 226.82 1010.13
  A 0.61 0.61 0.0 0 1 226.15 1009.29
  L 228.34 1004.14
  A 1.64 1.63 3.1 0 1 229.38 1003.21
  C 235.07 1001.49 241.15 1000.40 246.57 999.12
  Q 278.60 991.57 291.26 989.03
  Q 328.23 981.58 358.53 977.86
  Q 371.40 976.27 391.26 974.84
  Q 426.61 972.28 461.38 975.41
  Q 482.88 977.34 501.49 981.23
  C 526.83 986.53 552.76 993.98 575.16 1005.60
  Q 579.98 1008.11 588.95 1013.07
  Q 594.34 1016.04 601.62 1021.75
  A 2.20 2.18 55.6 0 0 603.61 1022.13
  L 607.09 1021.07
  A 0.52 0.51 -32.5 0 0 607.29 1020.19
  Q 588.06 1003.02 565.30 992.03
  C 551.50 985.37 536.79 979.63 521.37 975.36
  C 488.09 966.13 453.37 961.73 418.42 962.37
  Q 403.15 962.65 400.26 962.83
  C 369.09 964.85 338.72 968.65 308.44 975.38
  C 280.35 981.61 260.58 986.88 231.97 994.39
  A 0.60 0.60 0.0 0 1 231.25 993.62
  L 233.88 985.82
  A 1.15 1.14 -88.9 0 1 234.63 985.09
  Q 253.58 979.29 275.31 972.83
  Q 316.97 960.45 359.51 954.21
  C 368.64 952.86 380.65 951.71 389.52 950.92
  Q 418.63 948.33 449.49 950.72
  Q 505.88 955.10 555.51 977.53
  C 574.40 986.07 591.09 996.65 605.76 1009.09
  C 609.50 1012.27 612.38 1016.31 616.26 1019.49
  A 0.69 0.69 0.0 0 0 617.26 1019.36
  Q 617.37 1019.20 617.01 1018.23
  Q 615.17 1010.51 618.62 1002.69
  Q 620.14 1005.84 621.79 1006.49
  L 627.24 1017.14
  A 0.34 0.33 43.6 0 0 627.84 1017.13
  Q 629.98 1012.30 632.94 1007.94
  Q 633.09 1007.73 633.13 1007.21
  Q 633.16 1006.81 633.29 1006.46
  L 637.93 1000.40
  C 640.33 1003.99 642.60 1008.57 647.87 1005.18
  Q 641.80 1011.56 637.58 1018.78
  A 0.48 0.48 0.0 0 0 638.11 1019.49
  Q 638.75 1019.32 639.27 1018.77
  C 649.28 1008.01 659.60 1000.20 673.57 990.84
  Q 679.64 986.77 699.30 977.37
  Q 715.40 969.66 740.51 962.40
  Q 747.35 960.42 754.21 958.67
  C 765.64 960.39 773.38 961.28 782.69 965.61
  L 760.57 968.71
  A 0.39 0.38 -40.6 0 0 760.51 969.46
  Q 763.10 970.25 763.61 973.22
  Q 764.46 978.15 764.49 978.69
  A 0.62 0.62 0.0 0 0 765.24 979.26
  Q 772.39 977.77 776.03 977.34
  C 791.77 975.49 809.40 973.73 826.05 973.65
  Q 870.63 973.43 918.00 981.01
  Q 946.84 985.62 973.50 991.54
  Q 996.54 996.66 1025.07 1003.38
  A 1.69 1.66 84.4 0 1 1026.21 1004.33
  L 1028.41 1009.35
  A 0.64 0.64 0.0 0 1 1027.70 1010.24
  Q 991.76 1003.26 951.99 996.79
  Q 904.13 989.01 857.23 986.93
  Q 811.32 984.89 766.44 990.16
  A 0.70 0.69 86.8 0 0 765.83 990.85
  L 765.83 1000.18
  A 1.15 1.15 0.0 0 0 767.11 1001.32
  Q 781.52 999.66 794.25 999.01
  C 861.54 995.56 930.81 1002.88 999.72 1013.49
  Q 1001.84 1013.81 1018.85 1016.16
  Q 1028.39 1017.47 1037.91 1019.31
  Q 946.68 1019.80 855.75 1018.86
  Q 796.35 1018.24 767.52 1018.39
  A 0.56 0.55 -0.0 0 0 766.96 1018.94
  L 766.96 1051.72
  A 0.96 0.96 0.0 0 0 767.92 1052.68
  Q 805.40 1052.62 942.00 1052.75
  Q 969.12 1052.78 980.66 1052.71
  C 1008.65 1052.56 1040.01 1052.76 1071.47 1052.95
  Q 1077.53 1052.99 1079.50 1052.36
  Q 1083.83 1050.99 1085.00 1046.78
  Q 1085.72 1044.15 1082.79 1035.16
  Q 1056.67 955.18 1038.08 900.14
  Q 1016.80 837.16 987.65 754.82
  Q 985.86 749.74 984.38 747.91
  Q 981.82 744.75 978.14 743.46
  Q 970.54 740.80 959.81 739.16
  A 0.61 0.60 -87.7 0 0 959.12 739.80
  L 959.17 740.47
  Q 958.30 737.82 955.11 738.20
  Q 955.02 732.21 953.32 728.64
  Q 948.16 717.81 937.21 709.07
  Q 935.54 707.73 933.41 707.04
  L 932.38 702.11
  Q 944.77 713.57 954.36 725.70
  A 1.53 1.52 -14.2 0 0 955.29 726.25
  Q 971.91 729.09 979.72 731.40
  C 986.95 733.53 994.42 739.37 997.17 746.86
  Q 1003.03 762.86 1012.85 790.15
  C 1013.51 791.99 1014.69 794.51 1015.12 796.95
  A 0.45 0.45 0.0 0 0 1015.96 797.07
  C 1034.19 760.74 1047.89 722.75 1055.69 683.35
  Q 1063.75 642.62 1064.49 597.77
  C 1065.62 529.61 1052.01 462.50 1021.97 401.04
  Q 1008.40 373.29 992.82 350.42
  Q 941.34 274.88 863.18 224.07
  Q 852.87 217.37 843.29 212.22
  Q 755.30 164.91 655.52 159.41
  C 580.36 155.26 505.24 168.17 436.86 200.00
  Q 400.77 216.81 367.34 241.64
  C 315.22 280.36 271.29 329.26 241.23 384.93
  Q 205.23 451.61 193.97 528.46
  Q 190.22 554.06 189.73 584.18
  Q 189.27 612.22 191.92 640.06
  Q 197.92 703.08 221.81 761.23
  Q 229.55 780.06 238.15 797.28
  A 0.38 0.37 -49.0 0 0 238.84 797.23
  Q 242.15 787.82 250.31 764.90
  Q 254.43 753.34 254.43 753.32
  Q 257.22 745.33 259.39 742.14
  Q 265.37 733.36 277.39 730.61
  Q 291.30 727.44 298.53 726.28
  A 1.59 1.55 15.7 0 0 299.46 725.77
  L 303.23 721.50
  Z
  M 757.31 1147.30
  Q 757.23 1141.04 757.19 1133.75
  Q 757.14 1125.72 755.86 1049.19
  C 755.47 1025.75 754.69 1007.09 753.84 982.50
  A 0.80 0.80 0.0 0 0 753.03 981.73
  Q 727.86 981.97 703.66 988.41
  Q 691.18 991.73 681.00 996.12
  A 0.99 0.98 76.0 0 0 680.41 997.11
  Q 682.49 1022.50 682.64 1049.41
  C 682.67 1054.13 683.04 1059.30 683.13 1063.76
  Q 683.76 1092.51 684.86 1147.96
  A 0.36 0.35 75.6 0 0 685.38 1148.27
  Q 704.98 1138.06 717.92 1131.15
  Q 720.31 1129.87 721.46 1130.08
  A 1.82 1.56 58.7 0 1 721.89 1130.22
  L 756.78 1147.63
  A 0.37 0.36 12.9 0 0 757.31 1147.30
  Z
  M 651.13 1022.19
  A 2.04 2.03 -56.5 0 0 653.12 1021.78
  Q 659.91 1015.79 668.24 1011.48
  A 2.25 2.24 76.2 0 0 669.44 1009.49
  L 669.44 1004.71
  A 0.75 0.75 0.0 0 0 668.23 1004.11
  L 647.28 1020.10
  A 0.48 0.48 0.0 0 0 647.42 1020.94
  L 651.13 1022.19
  Z
  M 658.85 1024.95
  L 663.91 1027.10
  A 1.53 1.49 -44.7 0 0 665.12 1027.09
  L 669.15 1025.32
  A 1.77 1.76 -11.7 0 0 670.22 1023.70
  L 670.22 1018.31
  A 0.42 0.41 -15.0 0 0 669.60 1017.96
  L 658.81 1024.19
  A 0.43 0.42 -48.4 0 0 658.85 1024.95
  Z
  M 669.55 1029.07
  Q 668.91 1029.40 668.81 1029.82
  A 0.72 0.71 29.7 0 0 669.00 1030.48
  Q 670.37 1031.87 670.87 1031.61
  Q 671.37 1031.35 671.02 1029.43
  A 0.72 0.71 -84.6 0 0 670.58 1028.90
  Q 670.18 1028.74 669.55 1029.07
  Z
  M 568.94 1054.18
  Q 568.18 1067.84 580.96 1073.27
  Q 597.43 1080.28 612.06 1081.66
  Q 626.63 1083.04 640.92 1081.88
  C 651.82 1080.99 661.78 1078.01 671.33 1074.54
  A 0.96 0.96 0.0 0 0 671.96 1073.64
  L 671.96 1051.43
  A 0.85 0.84 1.1 0 0 671.14 1050.59
  Q 663.79 1050.34 648.44 1049.32
  C 636.53 1048.53 622.00 1048.56 611.79 1049.15
  Q 594.73 1050.13 572.29 1053.12
  Q 571.33 1053.24 570.72 1053.17
  Q 569.73 1053.05 569.41 1053.30
  A 1.18 1.18 0.0 0 0 568.94 1054.18
  Z
  M 279.20 1064.86
  Q 281.18 1066.96 289.01 1072.46
  Q 290.48 1073.49 298.89 1079.69
  Q 342.10 1111.53 385.64 1133.60
  C 476.94 1179.87 583.00 1200.19 685.35 1188.23
  Q 716.88 1184.54 748.43 1177.26
  C 831.97 1157.97 908.44 1118.57 974.77 1065.13
  A 0.51 0.51 0.0 0 0 974.45 1064.23
  L 767.91 1064.23
  A 0.28 0.28 0.0 0 0 767.63 1064.51
  C 767.56 1080.01 768.33 1097.35 768.42 1111.49
  Q 768.55 1131.88 768.86 1161.21
  Q 768.89 1163.66 766.07 1164.40
  A 0.75 0.72 49.3 0 1 765.56 1164.35
  L 721.62 1143.09
  A 1.73 1.72 -45.2 0 0 720.08 1143.10
  Q 700.41 1152.96 678.34 1164.63
  C 674.53 1166.65 673.92 1163.20 673.87 1160.50
  Q 673.02 1114.35 672.32 1089.65
  A 0.20 0.20 0.0 0 0 672.04 1089.47
  C 651.43 1097.64 628.48 1098.62 606.51 1095.69
  Q 593.53 1093.96 580.78 1089.02
  C 570.16 1084.90 559.12 1076.73 557.33 1064.60
  A 0.47 0.46 -4.3 0 0 556.87 1064.21
  L 279.48 1064.21
  A 0.39 0.39 0.0 0 0 279.20 1064.86
  Z"
/>
<path fill="#042344" d="
  M 1073.97 967.78
  A 0.36 0.36 0.0 0 1 1073.35 967.67
  Q 1048.92 893.13 1021.73 816.12
  A 1.29 1.29 0.0 0 1 1021.80 815.07
  C 1028.00 803.01 1032.87 793.95 1038.01 782.77
  Q 1073.74 704.96 1078.03 617.49
  C 1079.86 580.33 1078.21 543.74 1071.68 508.01
  Q 1062.43 457.30 1041.32 409.36
  Q 1017.14 354.42 978.27 307.72
  Q 939.93 261.66 890.66 226.07
  Q 866.15 208.36 841.47 195.79
  Q 769.42 159.11 689.46 149.10
  Q 681.49 148.10 668.51 147.18
  Q 651.08 145.94 647.51 145.81
  Q 614.87 144.62 582.00 147.55
  Q 487.19 156.01 403.98 201.25
  Q 379.96 214.31 354.61 233.42
  C 291.18 281.24 240.19 344.08 209.77 417.73
  Q 186.64 473.70 178.98 531.24
  Q 175.12 560.27 175.26 599.75
  C 175.29 607.31 176.05 616.53 176.40 625.59
  Q 176.54 629.43 177.11 635.91
  Q 184.26 716.57 219.31 789.70
  Q 227.10 805.96 231.99 814.69
  A 2.01 2.00 40.2 0 1 232.13 816.33
  Q 218.09 856.23 201.15 905.59
  Q 187.97 944.00 180.58 967.75
  A 0.50 0.49 -55.5 0 1 179.72 967.91
  Q 157.42 939.74 137.78 907.59
  C 98.44 843.21 72.65 771.70 60.86 697.11
  C 51.41 637.38 51.52 576.17 60.70 516.38
  Q 68.96 462.56 88.28 410.07
  Q 126.20 307.04 197.29 225.53
  Q 238.01 178.84 286.81 142.80
  C 321.61 117.09 360.23 94.88 400.07 78.00
  Q 493.95 38.22 597.70 32.12
  Q 631.44 30.13 665.75 32.44
  Q 709.41 35.38 749.72 44.07
  Q 792.20 53.24 834.05 68.71
  C 864.74 80.05 891.97 93.59 920.20 110.15
  Q 999.32 156.59 1059.86 227.27
  C 1089.17 261.49 1114.10 299.76 1134.90 339.83
  C 1147.83 364.75 1158.28 389.46 1167.67 415.39
  Q 1187.95 471.36 1195.49 531.00
  C 1202.33 585.13 1201.97 640.24 1193.57 694.04
  Q 1182.20 766.88 1153.90 834.06
  C 1137.36 873.31 1115.69 910.64 1091.10 945.35
  Q 1082.87 956.97 1073.97 967.78
  Z
  M 623.10 62.67
  L 602.31 62.67
  A 0.75 0.74 90.0 0 0 601.57 63.42
  L 601.57 66.90
  A 0.82 0.81 89.3 0 0 602.40 67.72
  C 604.35 67.67 607.72 68.21 607.08 70.98
  A 4.72 4.60 -22.5 0 1 606.40 72.56
  L 596.49 87.41
  A 0.45 0.44 -43.9 0 1 595.74 87.40
  Q 593.37 83.53 585.57 71.41
  Q 584.81 70.22 585.19 69.27
  Q 585.75 67.86 589.36 67.62
  A 0.94 0.94 0.0 0 0 590.24 66.68
  L 590.24 63.32
  A 0.70 0.69 90.0 0 0 589.55 62.62
  L 562.90 62.62
  A 1.10 1.09 90.0 0 0 561.81 63.72
  L 561.81 66.64
  A 1.30 1.30 0.0 0 0 563.07 67.94
  Q 567.09 68.04 568.90 70.78
  Q 580.47 88.28 586.37 98.18
  A 1.62 1.61 -43.3 0 1 586.31 99.95
  L 569.25 123.99
  A 3.03 2.99 3.8 0 1 568.15 124.94
  Q 565.43 126.29 562.50 126.62
  A 0.97 0.97 0.0 0 0 561.64 127.58
  L 561.64 130.80
  A 0.71 0.71 0.0 0 0 562.35 131.51
  L 582.98 131.51
  A 0.75 0.75 0.0 0 0 583.73 130.76
  L 583.73 127.61
  A 0.94 0.94 0.0 0 0 582.71 126.67
  Q 581.63 126.76 579.50 125.94
  A 1.83 1.82 -63.3 0 1 578.62 123.26
  L 590.15 105.10
  A 0.63 0.63 0.0 0 1 591.22 105.11
  L 602.30 122.88
  A 2.55 2.53 40.9 0 1 602.48 125.22
  Q 602.03 126.26 598.21 126.57
  A 0.88 0.87 -2.5 0 0 597.41 127.44
  L 597.41 130.78
  A 0.71 0.71 0.0 0 0 598.12 131.49
  L 625.30 131.49
  A 0.53 0.52 -0.0 0 0 625.83 130.97
  L 625.83 127.42
  A 0.75 0.74 3.5 0 0 625.17 126.68
  Q 621.14 126.24 619.26 123.44
  Q 612.06 112.68 600.16 94.05
  A 0.91 0.91 0.0 0 1 600.19 93.03
  L 615.81 71.00
  A 2.95 2.87 -3.6 0 1 616.30 70.46
  Q 619.22 68.00 623.07 67.56
  A 0.60 0.59 -3.3 0 0 623.60 66.97
  L 623.60 63.17
  A 0.50 0.50 0.0 0 0 623.10 62.67
  Z
  M 635.50 97.15
  Q 635.49 104.35 635.45 122.00
  C 635.45 126.14 633.01 126.39 629.56 126.85
  A 0.70 0.70 0.0 0 0 628.95 127.54
  L 628.95 131.05
  A 0.51 0.51 0.0 0 0 629.46 131.56
  L 655.86 131.56
  A 0.57 0.56 -0.0 0 0 656.43 131.00
  L 656.43 127.20
  A 0.59 0.58 0.0 0 0 655.84 126.62
  Q 653.43 126.65 651.58 125.84
  A 3.21 3.20 -79.2 0 1 649.66 123.01
  Q 649.61 121.60 649.63 97.16
  Q 649.64 72.72 649.69 71.31
  A 3.21 3.20 79.2 0 1 651.61 68.48
  Q 653.46 67.67 655.87 67.70
  A 0.59 0.58 0.1 0 0 656.46 67.12
  L 656.47 63.32
  A 0.57 0.56 0.1 0 0 655.90 62.76
  L 629.50 62.73
  A 0.51 0.51 0.0 0 0 628.99 63.24
  L 628.98 66.75
  A 0.70 0.70 0.0 0 0 629.59 67.44
  C 633.04 67.91 635.48 68.16 635.48 72.30
  Q 635.50 89.96 635.50 97.15
  Z
  M 668.15 97.18
  Q 668.12 120.55 667.97 123.00
  C 667.75 126.35 664.48 126.51 662.05 126.68
  A 0.72 0.72 0.0 0 0 661.38 127.40
  L 661.38 130.81
  A 0.72 0.72 0.0 0 0 662.09 131.53
  Q 668.38 131.58 675.12 131.63
  Q 681.85 131.59 688.14 131.56
  A 0.72 0.72 0.0 0 0 688.86 130.84
  L 688.87 127.43
  A 0.72 0.72 0.0 0 0 688.20 126.71
  C 685.77 126.53 682.50 126.37 682.29 123.01
  Q 682.14 120.56 682.16 97.20
  Q 682.19 73.84 682.35 71.39
  C 682.56 68.04 685.83 67.88 688.26 67.71
  A 0.72 0.72 0.0 0 0 688.93 66.99
  L 688.93 63.58
  A 0.72 0.72 0.0 0 0 688.22 62.86
  Q 681.93 62.81 675.19 62.76
  Q 668.46 62.79 662.17 62.83
  A 0.72 0.72 0.0 0 0 661.45 63.55
  L 661.45 66.96
  A 0.72 0.72 0.0 0 0 662.11 67.68
  C 664.54 67.85 667.81 68.02 668.02 71.37
  Q 668.18 73.82 668.15 97.18
  Z
  M 408.3268 106.5547
  A 0.80 0.80 0.0 0 0 407.2657 106.1622
  L 393.4746 112.5054
  A 0.80 0.80 0.0 0 0 393.0821 113.5665
  L 421.3132 174.9453
  A 0.80 0.80 0.0 0 0 422.3743 175.3378
  L 436.1654 168.9946
  A 0.80 0.80 0.0 0 0 436.5579 167.9335
  L 408.3268 106.5547
  Z
  M 864.0213 113.8623
  A 0.87 0.87 0.0 0 0 863.6066 112.7040
  L 850.0092 106.2765
  A 0.87 0.87 0.0 0 0 848.8508 106.6913
  L 819.9187 167.8977
  A 0.87 0.87 0.0 0 0 820.3334 169.0560
  L 833.9308 175.4835
  A 0.87 0.87 0.0 0 0 835.0892 175.0687
  L 864.0213 113.8623
  Z
  M 1001.3842 214.3483
  A 0.85 0.85 0.0 0 0 1001.3758 213.1462
  L 995.1243 206.9813
  A 0.85 0.85 0.0 0 0 993.9222 206.9897
  L 957.2558 244.1717
  A 0.85 0.85 0.0 0 0 957.2642 245.3738
  L 963.5157 251.5387
  A 0.85 0.85 0.0 0 0 964.7178 251.5303
  L 1001.3842 214.3483
  Z
  M 260.4369 208.2837
  A 0.78 0.78 0.0 0 0 259.3338 208.2760
  L 252.9968 214.5252
  A 0.78 0.78 0.0 0 0 252.9891 215.6282
  L 289.5431 252.6963
  A 0.78 0.78 0.0 0 0 290.6462 252.7040
  L 296.9832 246.4548
  A 0.78 0.78 0.0 0 0 296.9909 245.3518
  L 260.4369 208.2837
  Z
  M 1089.2695 319.7999
  A 0.76 0.76 0.0 0 0 1088.2353 319.5072
  L 1029.3306 352.4280
  A 0.76 0.76 0.0 0 0 1029.0379 353.4622
  L 1036.5705 366.9401
  A 0.76 0.76 0.0 0 0 1037.6047 367.2328
  L 1096.5094 334.3120
  A 0.76 0.76 0.0 0 0 1096.8021 333.2778
  L 1089.2695 319.7999
  Z
  M 224.9624 354.6183
  A 0.91 0.91 0.0 0 0 224.6119 353.3800
  L 165.8119 320.5178
  A 0.91 0.91 0.0 0 0 164.5736 320.8682
  L 157.1776 334.1017
  A 0.91 0.91 0.0 0 0 157.5281 335.3400
  L 216.3281 368.2022
  A 0.91 0.91 0.0 0 0 217.5664 367.8518
  L 224.9624 354.6183
  Z
  M 1139.1136 448.6982
  A 0.82 0.82 0.0 0 0 1138.1093 448.1184
  L 1089.8131 461.0594
  A 0.82 0.82 0.0 0 0 1089.2332 462.0637
  L 1091.5264 470.6218
  A 0.82 0.82 0.0 0 0 1092.5307 471.2016
  L 1140.8269 458.2606
  A 0.82 0.82 0.0 0 0 1141.4068 457.2563
  L 1139.1136 448.6982
  Z
  M 165.0588 463.5819
  A 0.76 0.76 0.0 0 0 164.5279 462.6473
  L 116.1110 449.3111
  A 0.76 0.76 0.0 0 0 115.1765 449.8420
  L 112.7812 458.5381
  A 0.76 0.76 0.0 0 0 113.3121 459.4727
  L 161.7290 472.8089
  A 0.76 0.76 0.0 0 0 162.6635 472.2780
  L 165.0588 463.5819
  Z
  M 81.38 583.89
  Q 81.34 609.58 81.23 612.58
  A 3.09 3.09 0.0 0 1 79.03 615.44
  L 75.47 616.52
  A 0.96 0.94 -8.8 0 0 74.80 617.42
  L 74.80 620.33
  A 0.86 0.85 0.1 0 0 75.65 621.19
  Q 81.61 621.18 88.04 621.21
  Q 94.47 621.21 100.43 621.23
  A 0.86 0.85 0.1 0 0 101.29 620.38
  L 101.29 617.46
  A 0.96 0.94 9.0 0 0 100.63 616.56
  L 97.07 615.47
  A 3.09 3.09 0.0 0 1 94.88 612.60
  Q 94.78 609.60 94.83 583.91
  Q 94.87 558.23 94.98 555.23
  A 3.09 3.09 0.0 0 1 97.18 552.37
  L 100.74 551.29
  A 0.96 0.94 -8.8 0 0 101.41 550.39
  L 101.41 547.47
  A 0.86 0.85 0.1 0 0 100.56 546.62
  Q 94.60 546.62 88.17 546.60
  Q 81.74 546.60 75.78 546.58
  A 0.86 0.85 0.1 0 0 74.92 547.43
  L 74.91 550.34
  A 0.96 0.94 9.0 0 0 75.58 551.25
  L 79.14 552.34
  A 3.09 3.09 0.0 0 1 81.33 555.21
  Q 81.42 558.20 81.38 583.89
  Z
  M 104.62 550.82
  A 0.89 0.88 -87.9 0 0 105.44 551.71
  C 108.53 551.96 110.93 552.64 112.47 555.54
  Q 114.12 558.68 129.13 584.88
  A 1.04 1.02 -44.5 0 1 129.11 585.94
  L 111.78 613.22
  A 0.76 0.66 85.9 0 1 111.66 613.38
  Q 109.19 615.94 105.45 616.15
  A 0.92 0.91 88.4 0 0 104.59 617.07
  L 104.59 620.52
  A 0.63 0.63 0.0 0 0 105.22 621.15
  L 125.57 621.15
  A 0.75 0.74 0.0 0 0 126.32 620.41
  L 126.32 617.16
  A 0.67 0.67 0.0 0 0 125.76 616.50
  Q 121.52 615.78 120.81 614.55
  A 2.80 2.80 0.0 0 1 120.83 611.72
  L 132.50 592.23
  A 0.61 0.61 0.0 0 1 133.56 592.25
  Q 138.52 601.34 144.48 612.52
  C 146.23 615.81 142.95 616.13 140.62 616.18
  A 1.03 1.03 0.0 0 0 139.62 617.21
  L 139.62 620.35
  A 0.81 0.81 0.0 0 0 140.43 621.16
  L 166.01 621.16
  A 0.71 0.70 -90.0 0 0 166.71 620.45
  L 166.71 617.14
  A 0.71 0.71 0.0 0 0 166.09 616.44
  Q 163.10 616.07 160.81 613.74
  A 2.68 2.67 8.0 0 1 160.37 613.16
  L 142.09 580.52
  A 0.97 0.97 0.0 0 1 142.09 579.58
  C 145.85 572.71 151.70 564.77 156.92 556.42
  C 158.74 553.51 161.72 552.12 164.73 551.91
  A 1.25 1.24 -2.0 0 0 165.89 550.67
  L 165.89 547.65
  A 1.16 1.16 0.0 0 0 164.73 546.49
  L 144.38 546.49
  A 0.72 0.72 0.0 0 0 143.66 547.21
  L 143.66 550.89
  A 0.81 0.81 0.0 0 0 144.53 551.70
  Q 146.73 551.53 148.54 552.39
  A 1.89 1.89 0.0 0 1 149.37 555.04
  L 138.78 573.39
  A 0.47 0.47 0.0 0 1 137.97 573.39
  Q 132.35 563.86 128.70 556.28
  C 126.98 552.72 128.62 551.66 132.08 551.75
  A 0.80 0.79 -89.0 0 0 132.90 550.95
  L 132.90 547.16
  A 0.67 0.67 0.0 0 0 132.23 546.49
  L 105.27 546.49
  A 0.65 0.65 0.0 0 0 104.62 547.14
  L 104.62 550.82
  Z
  M 1098.26 583.87
  Q 1098.22 609.58 1098.12 612.58
  A 3.10 3.09 82.6 0 1 1095.92 615.45
  L 1092.35 616.53
  A 0.96 0.94 -8.8 0 0 1091.68 617.43
  L 1091.68 620.35
  A 0.86 0.85 0.1 0 0 1092.54 621.20
  Q 1098.50 621.20 1104.94 621.22
  Q 1111.37 621.21 1117.33 621.24
  A 0.86 0.85 0.1 0 0 1118.19 620.39
  L 1118.20 617.46
  A 0.96 0.94 9.0 0 0 1117.53 616.56
  L 1113.97 615.47
  A 3.10 3.09 -82.4 0 1 1111.78 612.60
  Q 1111.68 609.60 1111.72 583.89
  Q 1111.76 558.18 1111.86 555.18
  A 3.10 3.09 82.6 0 1 1114.06 552.32
  L 1117.63 551.24
  A 0.96 0.94 -8.8 0 0 1118.30 550.34
  L 1118.30 547.41
  A 0.86 0.85 0.1 0 0 1117.44 546.56
  Q 1111.48 546.57 1105.04 546.54
  Q 1098.61 546.55 1092.65 546.52
  A 0.86 0.85 0.1 0 0 1091.79 547.38
  L 1091.78 550.30
  A 0.96 0.94 9.0 0 0 1092.45 551.20
  L 1096.01 552.29
  A 3.10 3.09 -82.4 0 1 1098.20 555.16
  Q 1098.30 558.16 1098.26 583.87
  Z
  M 1129.31 583.87
  Q 1129.28 609.56 1129.18 612.56
  A 3.09 3.09 0.0 0 1 1126.98 615.42
  L 1123.42 616.50
  A 0.96 0.94 -8.9 0 0 1122.75 617.40
  L 1122.75 620.32
  A 0.86 0.85 0.1 0 0 1123.61 621.17
  Q 1129.57 621.16 1136.00 621.19
  Q 1142.43 621.18 1148.38 621.20
  A 0.86 0.85 0.0 0 0 1149.24 620.35
  L 1149.25 617.43
  A 0.96 0.94 9.0 0 0 1148.58 616.53
  L 1145.02 615.44
  A 3.09 3.09 0.0 0 1 1142.83 612.57
  Q 1142.73 609.57 1142.76 583.88
  Q 1142.79 558.19 1142.89 555.20
  A 3.09 3.09 0.0 0 1 1145.09 552.33
  L 1148.65 551.25
  A 0.96 0.94 -8.9 0 0 1149.32 550.35
  L 1149.32 547.43
  A 0.86 0.85 0.1 0 0 1148.47 546.58
  Q 1142.51 546.59 1136.08 546.57
  Q 1129.65 546.57 1123.69 546.55
  A 0.86 0.85 0.0 0 0 1122.83 547.40
  L 1122.82 550.32
  A 0.96 0.94 9.0 0 0 1123.49 551.23
  L 1127.05 552.31
  A 3.09 3.09 0.0 0 1 1129.24 555.18
  Q 1129.34 558.18 1129.31 583.87
  Z
  M 1160.42 583.89
  Q 1160.42 609.57 1160.32 612.57
  A 3.09 3.09 0.0 0 1 1158.12 615.43
  L 1154.56 616.51
  A 0.96 0.94 -8.9 0 0 1153.89 617.41
  L 1153.89 620.33
  A 0.86 0.85 0.0 0 0 1154.75 621.18
  Q 1160.71 621.17 1167.13 621.19
  Q 1173.56 621.18 1179.52 621.19
  A 0.86 0.85 -0.0 0 0 1180.38 620.34
  L 1180.38 617.42
  A 0.96 0.94 8.9 0 0 1179.71 616.52
  L 1176.16 615.44
  A 3.09 3.09 0.0 0 1 1173.96 612.57
  Q 1173.86 609.57 1173.87 583.89
  Q 1173.88 558.21 1173.98 555.21
  A 3.09 3.09 0.0 0 1 1176.18 552.35
  L 1179.73 551.27
  A 0.96 0.94 -8.9 0 0 1180.40 550.36
  L 1180.40 547.45
  A 0.86 0.85 0.0 0 0 1179.54 546.59
  Q 1173.59 546.61 1167.16 546.59
  Q 1160.73 546.60 1154.77 546.59
  A 0.86 0.85 -0.0 0 0 1153.92 547.44
  L 1153.91 550.36
  A 0.96 0.94 8.9 0 0 1154.58 551.26
  L 1158.14 552.34
  A 3.09 3.09 0.0 0 1 1160.33 555.21
  Q 1160.43 558.20 1160.42 583.89
  Z
  M 1135.9367 758.9211
  A 0.86 0.86 0.0 0 0 1135.4150 757.8225
  L 1087.8411 740.8822
  A 0.86 0.86 0.0 0 0 1086.7425 741.4038
  L 1083.7033 749.9389
  A 0.86 0.86 0.0 0 0 1084.2250 751.0375
  L 1131.7989 767.9778
  A 0.86 0.86 0.0 0 0 1132.8975 767.4562
  L 1135.9367 758.9211
  Z
  M 167.6046 742.1571
  A 0.75 0.75 0.0 0 0 166.6465 741.7021
  L 118.7711 758.7498
  A 0.75 0.75 0.0 0 0 118.3162 759.7079
  L 121.3554 768.2429
  A 0.75 0.75 0.0 0 0 122.3135 768.6979
  L 170.1889 751.6502
  A 0.75 0.75 0.0 0 0 170.6438 750.6921
  L 167.6046 742.1571
  Z"
/>
<path fill="#e7b354" d="
  M 623.10 62.67
  A 0.50 0.50 0.0 0 1 623.60 63.17
  L 623.60 66.97
  A 0.60 0.59 -3.3 0 1 623.07 67.56
  Q 619.22 68.00 616.30 70.46
  A 2.95 2.87 -3.6 0 0 615.81 71.00
  L 600.19 93.03
  A 0.91 0.91 0.0 0 0 600.16 94.05
  Q 612.06 112.68 619.26 123.44
  Q 621.14 126.24 625.17 126.68
  A 0.75 0.74 3.5 0 1 625.83 127.42
  L 625.83 130.97
  A 0.53 0.52 -0.0 0 1 625.30 131.49
  L 598.12 131.49
  A 0.71 0.71 0.0 0 1 597.41 130.78
  L 597.41 127.44
  A 0.88 0.87 -2.5 0 1 598.21 126.57
  Q 602.03 126.26 602.48 125.22
  A 2.55 2.53 40.9 0 0 602.30 122.88
  L 591.22 105.11
  A 0.63 0.63 0.0 0 0 590.15 105.10
  L 578.62 123.26
  A 1.83 1.82 -63.3 0 0 579.50 125.94
  Q 581.63 126.76 582.71 126.67
  A 0.94 0.94 0.0 0 1 583.73 127.61
  L 583.73 130.76
  A 0.75 0.75 0.0 0 1 582.98 131.51
  L 562.35 131.51
  A 0.71 0.71 0.0 0 1 561.64 130.80
  L 561.64 127.58
  A 0.97 0.97 0.0 0 1 562.50 126.62
  Q 565.43 126.29 568.15 124.94
  A 3.03 2.99 3.8 0 0 569.25 123.99
  L 586.31 99.95
  A 1.62 1.61 -43.3 0 0 586.37 98.18
  Q 580.47 88.28 568.90 70.78
  Q 567.09 68.04 563.07 67.94
  A 1.30 1.30 0.0 0 1 561.81 66.64
  L 561.81 63.72
  A 1.10 1.09 90.0 0 1 562.90 62.62
  L 589.55 62.62
  A 0.70 0.69 90.0 0 1 590.24 63.32
  L 590.24 66.68
  A 0.94 0.94 0.0 0 1 589.36 67.62
  Q 585.75 67.86 585.19 69.27
  Q 584.81 70.22 585.57 71.41
  Q 593.37 83.53 595.74 87.40
  A 0.45 0.44 -43.9 0 0 596.49 87.41
  L 606.40 72.56
  A 4.72 4.60 -22.5 0 0 607.08 70.98
  C 607.72 68.21 604.35 67.67 602.40 67.72
  A 0.82 0.81 89.3 0 1 601.57 66.90
  L 601.57 63.42
  A 0.75 0.74 90.0 0 1 602.31 62.67
  L 623.10 62.67
  Z"
/>
<path fill="#e7b354" d="
  M 649.63 97.16
  Q 649.61 121.60 649.66 123.01
  A 3.21 3.20 -79.2 0 0 651.58 125.84
  Q 653.43 126.65 655.84 126.62
  A 0.59 0.58 0.0 0 1 656.43 127.20
  L 656.43 131.00
  A 0.57 0.56 -0.0 0 1 655.86 131.56
  L 629.46 131.56
  A 0.51 0.51 0.0 0 1 628.95 131.05
  L 628.95 127.54
  A 0.70 0.70 0.0 0 1 629.56 126.85
  C 633.01 126.39 635.45 126.14 635.45 122.00
  Q 635.49 104.35 635.50 97.15
  Q 635.50 89.96 635.48 72.30
  C 635.48 68.16 633.04 67.91 629.59 67.44
  A 0.70 0.70 0.0 0 1 628.98 66.75
  L 628.99 63.24
  A 0.51 0.51 0.0 0 1 629.50 62.73
  L 655.90 62.76
  A 0.57 0.56 0.1 0 1 656.47 63.32
  L 656.46 67.12
  A 0.59 0.58 0.1 0 1 655.87 67.70
  Q 653.46 67.67 651.61 68.48
  A 3.21 3.20 79.2 0 0 649.69 71.31
  Q 649.64 72.72 649.63 97.16
  Z"
/>
<path fill="#e7b354" d="
  M 675.19 62.76
  Q 681.93 62.81 688.22 62.86
  A 0.72 0.72 0.0 0 1 688.93 63.58
  L 688.93 66.99
  A 0.72 0.72 0.0 0 1 688.26 67.71
  C 685.83 67.88 682.56 68.04 682.35 71.39
  Q 682.19 73.84 682.16 97.20
  Q 682.14 120.56 682.29 123.01
  C 682.50 126.37 685.77 126.53 688.20 126.71
  A 0.72 0.72 0.0 0 1 688.87 127.43
  L 688.86 130.84
  A 0.72 0.72 0.0 0 1 688.14 131.56
  Q 681.85 131.59 675.12 131.63
  Q 668.38 131.58 662.09 131.53
  A 0.72 0.72 0.0 0 1 661.38 130.81
  L 661.38 127.40
  A 0.72 0.72 0.0 0 1 662.05 126.68
  C 664.48 126.51 667.75 126.35 667.97 123.00
  Q 668.12 120.55 668.15 97.18
  Q 668.18 73.82 668.02 71.37
  C 667.81 68.02 664.54 67.85 662.11 67.68
  A 0.72 0.72 0.0 0 1 661.45 66.96
  L 661.45 63.55
  A 0.72 0.72 0.0 0 1 662.17 62.83
  Q 668.46 62.79 675.19 62.76
  Z"
/>
<rect fill="#e7b354" x="-8.39" y="-34.58" transform="translate(414.82,140.75) rotate(-24.7)" width="16.78" height="69.16" rx="0.80"/>
<rect fill="#e7b354" x="-8.39" y="-34.72" transform="translate(841.97,140.88) rotate(25.3)" width="16.78" height="69.44" rx="0.87"/>
<path fill="#042344" d="
  M 932.38 702.11
  Q 916.32 694.76 896.55 690.93
  Q 839.56 679.90 783.93 690.22
  Q 757.59 695.11 734.97 704.43
  C 703.98 717.20 674.89 736.37 651.61 760.85
  Q 643.30 769.59 637.40 779.37
  Q 633.40 786.00 633.40 793.00
  Q 633.38 835.87 633.44 995.00
  Q 633.44 1000.73 633.29 1006.46
  Q 633.16 1006.81 633.13 1007.21
  Q 633.09 1007.73 632.94 1007.94
  Q 629.98 1012.30 627.84 1017.13
  A 0.34 0.33 43.6 0 1 627.24 1017.14
  L 621.79 1006.49
  Q 622.04 900.23 621.99 794.51
  C 621.98 783.29 615.06 774.25 608.06 766.18
  Q 591.81 747.44 571.35 732.63
  Q 516.47 692.91 448.23 685.73
  Q 398.70 680.52 347.58 693.14
  Q 332.23 696.93 322.16 701.92
  Q 311.51 711.76 303.23 721.50
  L 299.46 725.77
  A 1.59 1.55 15.7 0 1 298.53 726.28
  Q 291.30 727.44 277.39 730.61
  Q 265.37 733.36 259.39 742.14
  Q 257.22 745.33 254.43 753.32
  Q 254.43 753.34 250.31 764.90
  Q 242.15 787.82 238.84 797.23
  A 0.38 0.37 -49.0 0 1 238.15 797.28
  Q 229.55 780.06 221.81 761.23
  Q 197.92 703.08 191.92 640.06
  Q 189.27 612.22 189.73 584.18
  Q 190.22 554.06 193.97 528.46
  Q 205.23 451.61 241.23 384.93
  C 271.29 329.26 315.22 280.36 367.34 241.64
  Q 400.77 216.81 436.86 200.00
  C 505.24 168.17 580.36 155.26 655.52 159.41
  Q 755.30 164.91 843.29 212.22
  Q 852.87 217.37 863.18 224.07
  Q 941.34 274.88 992.82 350.42
  Q 1008.40 373.29 1021.97 401.04
  C 1052.01 462.50 1065.62 529.61 1064.49 597.77
  Q 1063.75 642.62 1055.69 683.35
  C 1047.89 722.75 1034.19 760.74 1015.96 797.07
  A 0.45 0.45 0.0 0 1 1015.12 796.95
  C 1014.69 794.51 1013.51 791.99 1012.85 790.15
  Q 1003.03 762.86 997.17 746.86
  C 994.42 739.37 986.95 733.53 979.72 731.40
  Q 971.91 729.09 955.29 726.25
  A 1.53 1.52 -14.2 0 1 954.36 725.70
  Q 944.77 713.57 932.38 702.11
  Z
  M 658.47 617.17
  L 707.04 637.83
  A 0.42 0.42 0.0 0 0 707.63 637.44
  L 707.63 572.40
  A 0.83 0.82 -78.8 0 0 707.13 571.64
  L 658.42 550.91
  A 0.82 0.82 0.0 0 1 657.91 550.15
  L 657.91 416.63
  A 0.52 0.51 90.0 0 1 658.42 416.11
  L 807.47 416.11
  A 0.43 0.43 0.0 0 0 807.90 415.68
  L 807.90 353.52
  A 0.34 0.34 0.0 0 0 807.56 353.18
  L 658.33 353.18
  A 0.24 0.24 0.0 0 1 658.09 352.94
  L 658.09 301.20
  A 0.46 0.46 0.0 0 1 658.55 300.74
  L 700.01 300.74
  A 0.42 0.42 0.0 0 0 700.43 300.32
  L 700.43 240.66
  A 0.53 0.52 90.0 0 0 699.91 240.13
  L 658.98 240.13
  A 0.56 0.55 0.0 0 1 658.42 239.58
  L 658.42 196.59
  A 0.49 0.48 90.0 0 0 657.94 196.10
  L 597.94 196.10
  A 0.79 0.79 0.0 0 0 597.15 196.89
  L 597.15 239.60
  A 0.53 0.53 0.0 0 1 596.62 240.13
  L 556.40 240.13
  A 0.55 0.55 0.0 0 0 555.85 240.68
  L 555.85 300.15
  A 0.60 0.60 0.0 0 0 556.45 300.75
  L 596.56 300.75
  A 0.62 0.62 0.0 0 1 597.18 301.37
  L 597.18 352.66
  A 0.50 0.50 0.0 0 1 596.68 353.16
  L 446.56 353.16
  A 0.46 0.45 -90.0 0 0 446.11 353.62
  L 446.11 415.66
  A 0.44 0.44 0.0 0 0 446.55 416.10
  L 596.72 416.10
  A 0.43 0.43 0.0 0 1 597.15 416.53
  L 597.15 524.18
  A 0.49 0.48 11.7 0 1 596.47 524.62
  L 546.85 503.51
  A 0.41 0.40 -78.6 0 0 546.29 503.89
  L 546.29 569.08
  A 0.82 0.81 -78.6 0 0 546.78 569.83
  L 596.41 590.94
  A 1.20 1.19 -78.4 0 1 597.13 592.04
  L 597.13 736.98
  A 1.34 1.34 0.0 0 0 597.59 737.99
  Q 613.80 752.22 627.03 769.05
  A 0.77 0.76 44.2 0 0 628.24 769.04
  Q 641.42 751.58 657.49 737.73
  A 1.14 1.14 0.0 0 0 657.88 736.87
  L 657.88 617.56
  A 0.42 0.42 0.0 0 1 658.47 617.17
  Z"
/>
<path fill="#e7b354" d="
  M 658.47 617.17
  A 0.42 0.42 0.0 0 0 657.88 617.56
  L 657.88 736.87
  A 1.14 1.14 0.0 0 1 657.49 737.73
  Q 641.42 751.58 628.24 769.04
  A 0.77 0.76 44.2 0 1 627.03 769.05
  Q 613.80 752.22 597.59 737.99
  A 1.34 1.34 0.0 0 1 597.13 736.98
  L 597.13 592.04
  A 1.20 1.19 -78.4 0 0 596.41 590.94
  L 546.78 569.83
  A 0.82 0.81 -78.6 0 1 546.29 569.08
  L 546.29 503.89
  A 0.41 0.40 -78.6 0 1 546.85 503.51
  L 596.47 524.62
  A 0.49 0.48 11.7 0 0 597.15 524.18
  L 597.15 416.53
  A 0.43 0.43 0.0 0 0 596.72 416.10
  L 446.55 416.10
  A 0.44 0.44 0.0 0 1 446.11 415.66
  L 446.11 353.62
  A 0.46 0.45 90.0 0 1 446.56 353.16
  L 596.68 353.16
  A 0.50 0.50 0.0 0 0 597.18 352.66
  L 597.18 301.37
  A 0.62 0.62 0.0 0 0 596.56 300.75
  L 556.45 300.75
  A 0.60 0.60 0.0 0 1 555.85 300.15
  L 555.85 240.68
  A 0.55 0.55 0.0 0 1 556.40 240.13
  L 596.62 240.13
  A 0.53 0.53 0.0 0 0 597.15 239.60
  L 597.15 196.89
  A 0.79 0.79 0.0 0 1 597.94 196.10
  L 657.94 196.10
  A 0.49 0.48 -90.0 0 1 658.42 196.59
  L 658.42 239.58
  A 0.56 0.55 -0.0 0 0 658.98 240.13
  L 699.91 240.13
  A 0.53 0.52 90.0 0 1 700.43 240.66
  L 700.43 300.32
  A 0.42 0.42 0.0 0 1 700.01 300.74
  L 658.55 300.74
  A 0.46 0.46 0.0 0 0 658.09 301.20
  L 658.09 352.94
  A 0.24 0.24 0.0 0 0 658.33 353.18
  L 807.56 353.18
  A 0.34 0.34 0.0 0 1 807.90 353.52
  L 807.90 415.68
  A 0.43 0.43 0.0 0 1 807.47 416.11
  L 658.42 416.11
  A 0.52 0.51 90.0 0 0 657.91 416.63
  L 657.91 550.15
  A 0.82 0.82 0.0 0 0 658.42 550.91
  L 707.13 571.64
  A 0.83 0.82 -78.8 0 1 707.63 572.40
  L 707.63 637.44
  A 0.42 0.42 0.0 0 1 707.04 637.83
  L 658.47 617.17
  Z"
/>
<rect fill="#dba440" x="-5.24" y="-26.96" transform="translate(979.32,229.26) rotate(44.6)" width="10.48" height="53.92" rx="0.85"/>
<rect fill="#dba440" x="-5.23" y="-26.81" transform="translate(274.99,230.49) rotate(-44.6)" width="10.46" height="53.62" rx="0.78"/>
<rect fill="#e7b354" x="-34.50" y="-8.48" transform="translate(1062.92,343.37) rotate(-29.2)" width="69.00" height="16.96" rx="0.76"/>
<rect fill="#e7b354" x="-34.59" y="-8.49" transform="translate(191.07,344.36) rotate(29.2)" width="69.18" height="16.98" rx="0.91"/>
<rect fill="#e7b354" x="-25.82" y="-5.25" transform="translate(1115.32,459.66) rotate(-15.0)" width="51.64" height="10.50" rx="0.82"/>
<rect fill="#dba440" x="-25.87" y="-5.27" transform="translate(138.92,461.06) rotate(15.4)" width="51.74" height="10.54" rx="0.76"/>
<path fill="#e7b354" d="
  M 81.38 583.89
  Q 81.42 558.20 81.33 555.21
  A 3.09 3.09 0.0 0 0 79.14 552.34
  L 75.58 551.25
  A 0.96 0.94 9.0 0 1 74.91 550.34
  L 74.92 547.43
  A 0.86 0.85 0.1 0 1 75.78 546.58
  Q 81.74 546.60 88.17 546.60
  Q 94.60 546.62 100.56 546.62
  A 0.86 0.85 0.1 0 1 101.41 547.47
  L 101.41 550.39
  A 0.96 0.94 -8.8 0 1 100.74 551.29
  L 97.18 552.37
  A 3.09 3.09 0.0 0 0 94.98 555.23
  Q 94.87 558.23 94.83 583.91
  Q 94.78 609.60 94.88 612.60
  A 3.09 3.09 0.0 0 0 97.07 615.47
  L 100.63 616.56
  A 0.96 0.94 9.0 0 1 101.29 617.46
  L 101.29 620.38
  A 0.86 0.85 0.1 0 1 100.43 621.23
  Q 94.47 621.21 88.04 621.21
  Q 81.61 621.18 75.65 621.19
  A 0.86 0.85 0.1 0 1 74.80 620.33
  L 74.80 617.42
  A 0.96 0.94 -8.8 0 1 75.47 616.52
  L 79.03 615.44
  A 3.09 3.09 0.0 0 0 81.23 612.58
  Q 81.34 609.58 81.38 583.89
  Z"
/>
<path fill="#e7b354" d="
  M 104.62 550.82
  L 104.62 547.14
  A 0.65 0.65 0.0 0 1 105.27 546.49
  L 132.23 546.49
  A 0.67 0.67 0.0 0 1 132.90 547.16
  L 132.90 550.95
  A 0.80 0.79 -89.0 0 1 132.08 551.75
  C 128.62 551.66 126.98 552.72 128.70 556.28
  Q 132.35 563.86 137.97 573.39
  A 0.47 0.47 0.0 0 0 138.78 573.39
  L 149.37 555.04
  A 1.89 1.89 0.0 0 0 148.54 552.39
  Q 146.73 551.53 144.53 551.70
  A 0.81 0.81 0.0 0 1 143.66 550.89
  L 143.66 547.21
  A 0.72 0.72 0.0 0 1 144.38 546.49
  L 164.73 546.49
  A 1.16 1.16 0.0 0 1 165.89 547.65
  L 165.89 550.67
  A 1.25 1.24 -2.0 0 1 164.73 551.91
  C 161.72 552.12 158.74 553.51 156.92 556.42
  C 151.70 564.77 145.85 572.71 142.09 579.58
  A 0.97 0.97 0.0 0 0 142.09 580.52
  L 160.37 613.16
  A 2.68 2.67 8.0 0 0 160.81 613.74
  Q 163.10 616.07 166.09 616.44
  A 0.71 0.71 0.0 0 1 166.71 617.14
  L 166.71 620.45
  A 0.71 0.70 90.0 0 1 166.01 621.16
  L 140.43 621.16
  A 0.81 0.81 0.0 0 1 139.62 620.35
  L 139.62 617.21
  A 1.03 1.03 0.0 0 1 140.62 616.18
  C 142.95 616.13 146.23 615.81 144.48 612.52
  Q 138.52 601.34 133.56 592.25
  A 0.61 0.61 0.0 0 0 132.50 592.23
  L 120.83 611.72
  A 2.80 2.80 0.0 0 0 120.81 614.55
  Q 121.52 615.78 125.76 616.50
  A 0.67 0.67 0.0 0 1 126.32 617.16
  L 126.32 620.41
  A 0.75 0.74 0.0 0 1 125.57 621.15
  L 105.22 621.15
  A 0.63 0.63 0.0 0 1 104.59 620.52
  L 104.59 617.07
  A 0.92 0.91 88.4 0 1 105.45 616.15
  Q 109.19 615.94 111.66 613.38
  A 0.76 0.66 85.9 0 0 111.78 613.22
  L 129.11 585.94
  A 1.04 1.02 -44.5 0 0 129.13 584.88
  Q 114.12 558.68 112.47 555.54
  C 110.93 552.64 108.53 551.96 105.44 551.71
  A 0.89 0.88 -87.9 0 1 104.62 550.82
  Z"
/>
<path fill="#dba440" d="
  M 1098.26 583.87
  Q 1098.30 558.16 1098.20 555.16
  A 3.10 3.09 -82.4 0 0 1096.01 552.29
  L 1092.45 551.20
  A 0.96 0.94 9.0 0 1 1091.78 550.30
  L 1091.79 547.38
  A 0.86 0.85 0.1 0 1 1092.65 546.52
  Q 1098.61 546.55 1105.04 546.54
  Q 1111.48 546.57 1117.44 546.56
  A 0.86 0.85 0.1 0 1 1118.30 547.41
  L 1118.30 550.34
  A 0.96 0.94 -8.8 0 1 1117.63 551.24
  L 1114.06 552.32
  A 3.10 3.09 82.6 0 0 1111.86 555.18
  Q 1111.76 558.18 1111.72 583.89
  Q 1111.68 609.60 1111.78 612.60
  A 3.10 3.09 -82.4 0 0 1113.97 615.47
  L 1117.53 616.56
  A 0.96 0.94 9.0 0 1 1118.20 617.46
  L 1118.19 620.39
  A 0.86 0.85 0.1 0 1 1117.33 621.24
  Q 1111.37 621.21 1104.94 621.22
  Q 1098.50 621.20 1092.54 621.20
  A 0.86 0.85 0.1 0 1 1091.68 620.35
  L 1091.68 617.43
  A 0.96 0.94 -8.8 0 1 1092.35 616.53
  L 1095.92 615.45
  A 3.10 3.09 82.6 0 0 1098.12 612.58
  Q 1098.22 609.58 1098.26 583.87
  Z"
/>
<path fill="#e7b354" d="
  M 1136.08 546.57
  Q 1142.51 546.59 1148.47 546.58
  A 0.86 0.85 0.1 0 1 1149.32 547.43
  L 1149.32 550.35
  A 0.96 0.94 -8.9 0 1 1148.65 551.25
  L 1145.09 552.33
  A 3.09 3.09 0.0 0 0 1142.89 555.20
  Q 1142.79 558.19 1142.76 583.88
  Q 1142.73 609.57 1142.83 612.57
  A 3.09 3.09 0.0 0 0 1145.02 615.44
  L 1148.58 616.53
  A 0.96 0.94 9.0 0 1 1149.25 617.43
  L 1149.24 620.35
  A 0.86 0.85 0.0 0 1 1148.38 621.20
  Q 1142.43 621.18 1136.00 621.19
  Q 1129.57 621.16 1123.61 621.17
  A 0.86 0.85 0.1 0 1 1122.75 620.32
  L 1122.75 617.40
  A 0.96 0.94 -8.9 0 1 1123.42 616.50
  L 1126.98 615.42
  A 3.09 3.09 0.0 0 0 1129.18 612.56
  Q 1129.28 609.56 1129.31 583.87
  Q 1129.34 558.18 1129.24 555.18
  A 3.09 3.09 0.0 0 0 1127.05 552.31
  L 1123.49 551.23
  A 0.96 0.94 9.0 0 1 1122.82 550.32
  L 1122.83 547.40
  A 0.86 0.85 0.0 0 1 1123.69 546.55
  Q 1129.65 546.57 1136.08 546.57
  Z"
/>
<path fill="#e7b354" d="
  M 1160.42 583.89
  Q 1160.43 558.20 1160.33 555.21
  A 3.09 3.09 0.0 0 0 1158.14 552.34
  L 1154.58 551.26
  A 0.96 0.94 8.9 0 1 1153.91 550.36
  L 1153.92 547.44
  A 0.86 0.85 -0.0 0 1 1154.77 546.59
  Q 1160.73 546.60 1167.16 546.59
  Q 1173.59 546.61 1179.54 546.59
  A 0.86 0.85 0.0 0 1 1180.40 547.45
  L 1180.40 550.36
  A 0.96 0.94 -8.9 0 1 1179.73 551.27
  L 1176.18 552.35
  A 3.09 3.09 0.0 0 0 1173.98 555.21
  Q 1173.88 558.21 1173.87 583.89
  Q 1173.86 609.57 1173.96 612.57
  A 3.09 3.09 0.0 0 0 1176.16 615.44
  L 1179.71 616.52
  A 0.96 0.94 8.9 0 1 1180.38 617.42
  L 1180.38 620.34
  A 0.86 0.85 -0.0 0 1 1179.52 621.19
  Q 1173.56 621.18 1167.13 621.19
  Q 1160.71 621.17 1154.75 621.18
  A 0.86 0.85 0.0 0 1 1153.89 620.33
  L 1153.89 617.41
  A 0.96 0.94 -8.9 0 1 1154.56 616.51
  L 1158.12 615.43
  A 3.09 3.09 0.0 0 0 1160.32 612.57
  Q 1160.42 609.57 1160.42 583.89
  Z"
/>
<path fill="#fdeccc" d="
  M 621.79 1006.49
  Q 620.14 1005.84 618.62 1002.69
  Q 606.76 987.70 591.78 975.98
  Q 580.51 967.17 574.51 963.48
  Q 543.73 944.58 508.58 934.94
  C 480.58 927.26 451.74 923.89 423.03 923.42
  Q 413.87 923.27 402.50 924.04
  C 384.64 925.23 367.54 926.55 348.74 929.75
  Q 313.25 935.78 278.18 946.71
  Q 267.14 950.16 256.04 954.46
  A 0.38 0.38 0.0 0 1 255.53 954.01
  Q 285.87 839.23 317.52 721.51
  Q 318.73 717.01 322.16 701.92
  Q 332.23 696.93 347.58 693.14
  Q 398.70 680.52 448.23 685.73
  Q 516.47 692.91 571.35 732.63
  Q 591.81 747.44 608.06 766.18
  C 615.06 774.25 621.98 783.29 621.99 794.51
  Q 622.04 900.23 621.79 1006.49
  Z"
/>
<path fill="#fdeccc" d="
  M 932.38 702.11
  L 933.41 707.04
  Q 933.73 709.05 934.24 711.02
  Q 945.59 754.87 958.30 801.44
  Q 966.70 832.20 995.80 943.98
  Q 996.60 947.06 998.10 954.03
  A 0.30 0.30 0.0 0 1 997.70 954.38
  C 947.71 935.76 893.64 924.55 840.96 923.62
  Q 811.28 923.10 781.13 927.63
  Q 738.27 934.07 700.14 952.41
  Q 667.89 967.92 642.95 994.45
  Q 639.75 997.86 637.93 1000.40
  L 633.29 1006.46
  Q 633.44 1000.73 633.44 995.00
  Q 633.38 835.87 633.40 793.00
  Q 633.40 786.00 637.40 779.37
  Q 643.30 769.59 651.61 760.85
  C 674.89 736.37 703.98 717.20 734.97 704.43
  Q 757.59 695.11 783.93 690.22
  Q 839.56 679.90 896.55 690.93
  Q 916.32 694.76 932.38 702.11
  Z"
/>
<path fill="#dba440" d="
  M 322.16 701.92
  Q 318.73 717.01 317.52 721.51
  Q 285.87 839.23 255.53 954.01
  A 0.38 0.38 0.0 0 0 256.04 954.46
  Q 267.14 950.16 278.18 946.71
  Q 313.25 935.78 348.74 929.75
  C 367.54 926.55 384.64 925.23 402.50 924.04
  Q 413.87 923.27 423.03 923.42
  C 451.74 923.89 480.58 927.26 508.58 934.94
  Q 543.73 944.58 574.51 963.48
  Q 580.51 967.17 591.78 975.98
  Q 606.76 987.70 618.62 1002.69
  Q 615.17 1010.51 617.01 1018.23
  Q 609.23 1006.70 599.39 996.96
  Q 594.93 992.54 587.75 986.95
  Q 578.68 979.88 575.36 977.90
  Q 559.44 968.38 557.06 967.17
  Q 524.23 950.56 488.39 943.56
  Q 453.72 936.78 418.99 937.01
  C 370.32 937.32 321.15 946.21 274.13 961.40
  Q 251.25 968.80 237.80 973.43
  A 0.45 0.45 0.0 0 1 237.22 972.89
  L 298.75 738.88
  Q 304.83 731.10 303.23 721.50
  Q 311.51 711.76 322.16 701.92
  Z"
/>
<path fill="#dba440" d="
  M 955.11 738.20
  Q 955.37 739.91 955.97 741.69
  C 957.55 746.36 958.67 751.14 960.28 755.79
  C 961.77 760.11 962.96 764.92 963.65 769.17
  Q 964.08 771.78 966.10 779.21
  C 969.45 791.47 972.55 804.32 975.31 814.62
  Q 999.04 903.33 1011.41 953.41
  Q 1013.20 960.64 1016.62 972.39
  A 0.61 0.61 0.0 0 1 1015.83 973.14
  C 990.92 964.33 964.68 956.03 937.51 949.52
  Q 885.24 937.01 832.76 937.09
  Q 783.29 937.16 738.54 950.82
  Q 705.79 960.81 680.92 977.18
  Q 665.80 987.12 656.67 995.66
  Q 654.44 997.74 647.87 1005.18
  C 642.60 1008.57 640.33 1003.99 637.93 1000.40
  Q 639.75 997.86 642.95 994.45
  Q 667.89 967.92 700.14 952.41
  Q 738.27 934.07 781.13 927.63
  Q 811.28 923.10 840.96 923.62
  C 893.64 924.55 947.71 935.76 997.70 954.38
  A 0.30 0.30 0.0 0 0 998.10 954.03
  Q 996.60 947.06 995.80 943.98
  Q 966.70 832.20 958.30 801.44
  Q 945.59 754.87 934.24 711.02
  Q 933.73 709.05 933.41 707.04
  Q 935.54 707.73 937.21 709.07
  Q 948.16 717.81 953.32 728.64
  Q 955.02 732.21 955.11 738.20
  Z"
/>
<path fill="#fdeccc" d="
  M 298.75 738.88
  L 237.22 972.89
  A 0.45 0.45 0.0 0 0 237.80 973.43
  Q 251.25 968.80 274.13 961.40
  C 321.15 946.21 370.32 937.32 418.99 937.01
  Q 453.72 936.78 488.39 943.56
  Q 524.23 950.56 557.06 967.17
  Q 559.44 968.38 575.36 977.90
  Q 578.68 979.88 587.75 986.95
  Q 594.93 992.54 599.39 996.96
  Q 609.23 1006.70 617.01 1018.23
  Q 617.37 1019.20 617.26 1019.36
  A 0.69 0.69 0.0 0 1 616.26 1019.49
  C 612.38 1016.31 609.50 1012.27 605.76 1009.09
  C 591.09 996.65 574.40 986.07 555.51 977.53
  Q 505.88 955.10 449.49 950.72
  Q 418.63 948.33 389.52 950.92
  C 380.65 951.71 368.64 952.86 359.51 954.21
  Q 316.97 960.45 275.31 972.83
  Q 253.58 979.29 234.63 985.09
  A 1.15 1.14 -88.9 0 0 233.88 985.82
  L 231.25 993.62
  A 0.60 0.60 0.0 0 0 231.97 994.39
  C 260.58 986.88 280.35 981.61 308.44 975.38
  C 338.72 968.65 369.09 964.85 400.26 962.83
  Q 403.15 962.65 418.42 962.37
  C 453.37 961.73 488.09 966.13 521.37 975.36
  C 536.79 979.63 551.50 985.37 565.30 992.03
  Q 588.06 1003.02 607.29 1020.19
  A 0.52 0.51 -32.5 0 1 607.09 1021.07
  L 603.61 1022.13
  A 2.20 2.18 55.6 0 1 601.62 1021.75
  Q 594.34 1016.04 588.95 1013.07
  Q 579.98 1008.11 575.16 1005.60
  C 552.76 993.98 526.83 986.53 501.49 981.23
  Q 482.88 977.34 461.38 975.41
  Q 426.61 972.28 391.26 974.84
  Q 371.40 976.27 358.53 977.86
  Q 328.23 981.58 291.26 989.03
  Q 278.60 991.57 246.57 999.12
  C 241.15 1000.40 235.07 1001.49 229.38 1003.21
  A 1.64 1.63 3.1 0 0 228.34 1004.14
  L 226.15 1009.29
  A 0.61 0.61 0.0 0 0 226.82 1010.13
  C 231.76 1009.26 236.99 1007.76 242.75 1006.81
  Q 247.86 1005.97 275.99 1000.96
  Q 318.46 993.41 362.75 989.28
  C 409.38 984.94 457.07 985.03 503.01 992.30
  Q 526.64 996.04 551.47 1003.84
  C 558.70 1006.11 569.25 1010.65 575.52 1013.23
  Q 582.65 1016.17 595.81 1024.37
  A 0.10 0.10 0.0 0 1 595.80 1024.55
  L 590.12 1027.05
  A 0.75 0.73 47.6 0 1 589.45 1027.01
  C 581.93 1022.80 574.66 1020.88 566.90 1017.53
  Q 563.05 1015.86 556.28 1013.97
  Q 540.21 1009.47 524.13 1006.60
  C 479.62 998.67 435.37 996.78 390.50 998.95
  Q 336.44 1001.58 279.26 1009.30
  Q 244.86 1013.95 216.47 1019.18
  L 210.61 1019.55
  A 0.72 0.71 6.8 0 1 209.88 1018.63
  L 295.34 739.45
  Q 299.28 736.91 298.75 738.88
  Z"
/>
<path fill="#fdeccc" d="
  M 959.17 740.47
  L 1043.91 1018.86
  A 0.59 0.59 0.0 0 1 1043.32 1019.62
  L 1037.91 1019.31
  Q 1028.39 1017.47 1018.85 1016.16
  Q 1001.84 1013.81 999.72 1013.49
  C 930.81 1002.88 861.54 995.56 794.25 999.01
  Q 781.52 999.66 767.11 1001.32
  A 1.15 1.15 0.0 0 1 765.83 1000.18
  L 765.83 990.85
  A 0.70 0.69 86.8 0 1 766.44 990.16
  Q 811.32 984.89 857.23 986.93
  Q 904.13 989.01 951.99 996.79
  Q 991.76 1003.26 1027.70 1010.24
  A 0.64 0.64 0.0 0 0 1028.41 1009.35
  L 1026.21 1004.33
  A 1.69 1.66 84.4 0 0 1025.07 1003.38
  Q 996.54 996.66 973.50 991.54
  Q 946.84 985.62 918.00 981.01
  Q 870.63 973.43 826.05 973.65
  C 809.40 973.73 791.77 975.49 776.03 977.34
  Q 772.39 977.77 765.24 979.26
  A 0.62 0.62 0.0 0 1 764.49 978.69
  Q 764.46 978.15 763.61 973.22
  Q 763.10 970.25 760.51 969.46
  A 0.39 0.38 -40.6 0 1 760.57 968.71
  L 782.69 965.61
  Q 821.65 960.52 858.31 962.93
  Q 891.00 965.09 929.59 971.93
  C 938.79 973.57 949.31 976.22 957.07 977.86
  C 978.80 982.47 999.46 988.51 1022.15 994.77
  A 0.61 0.61 0.0 0 0 1022.89 994.00
  L 1020.38 985.73
  A 1.02 1.01 -88.9 0 0 1019.74 985.06
  C 1011.18 982.23 1002.57 979.97 993.26 977.07
  Q 964.10 967.98 932.27 961.00
  Q 899.94 953.91 863.74 950.86
  Q 808.02 946.17 754.21 958.67
  Q 747.35 960.42 740.51 962.40
  Q 715.40 969.66 699.30 977.37
  Q 679.64 986.77 673.57 990.84
  C 659.60 1000.20 649.28 1008.01 639.27 1018.77
  Q 638.75 1019.32 638.11 1019.49
  A 0.48 0.48 0.0 0 1 637.58 1018.78
  Q 641.80 1011.56 647.87 1005.18
  Q 654.44 997.74 656.67 995.66
  Q 665.80 987.12 680.92 977.18
  Q 705.79 960.81 738.54 950.82
  Q 783.29 937.16 832.76 937.09
  Q 885.24 937.01 937.51 949.52
  C 964.68 956.03 990.92 964.33 1015.83 973.14
  A 0.61 0.61 0.0 0 0 1016.62 972.39
  Q 1013.20 960.64 1011.41 953.41
  Q 999.04 903.33 975.31 814.62
  C 972.55 804.32 969.45 791.47 966.10 779.21
  Q 964.08 771.78 963.65 769.17
  C 962.96 764.92 961.77 760.11 960.28 755.79
  C 958.67 751.14 957.55 746.36 955.97 741.69
  Q 955.37 739.91 955.11 738.20
  Q 958.30 737.82 959.17 740.47
  Z"
/>
<path fill="#621516" d="
  M 295.34 739.45
  L 209.88 1018.63
  A 0.72 0.71 6.8 0 0 210.61 1019.55
  L 216.47 1019.18
  Q 301.53 1019.90 386.00 1018.78
  Q 428.98 1018.20 481.50 1018.55
  Q 518.47 1018.79 548.07 1021.81
  C 559.73 1023.00 569.67 1024.87 580.43 1027.59
  Q 583.36 1028.34 586.01 1029.76
  A 0.44 0.44 0.0 0 1 586.04 1030.53
  Q 573.33 1038.26 569.01 1052.17
  A 0.76 0.75 -81.0 0 1 568.29 1052.70
  Q 364.87 1052.67 182.80 1052.88
  Q 174.77 1052.89 172.53 1051.66
  C 166.26 1048.22 169.03 1041.25 171.06 1035.05
  Q 195.62 960.16 214.71 903.20
  Q 223.11 878.13 260.92 769.94
  Q 261.49 768.30 266.28 755.18
  Q 268.35 749.52 270.23 747.42
  Q 273.08 744.26 277.62 742.87
  Q 286.93 740.01 295.34 739.45
  Z"
/>
<path fill="#621516" d="
  M 1037.91 1019.31
  L 1043.32 1019.62
  A 0.59 0.59 0.0 0 0 1043.91 1018.86
  L 959.17 740.47
  L 959.12 739.80
  A 0.61 0.60 -87.7 0 1 959.81 739.16
  Q 970.54 740.80 978.14 743.46
  Q 981.82 744.75 984.38 747.91
  Q 985.86 749.74 987.65 754.82
  Q 1016.80 837.16 1038.08 900.14
  Q 1056.67 955.18 1082.79 1035.16
  Q 1085.72 1044.15 1085.00 1046.78
  Q 1083.83 1050.99 1079.50 1052.36
  Q 1077.53 1052.99 1071.47 1052.95
  C 1040.01 1052.76 1008.65 1052.56 980.66 1052.71
  Q 969.12 1052.78 942.00 1052.75
  Q 805.40 1052.62 767.92 1052.68
  A 0.96 0.96 0.0 0 1 766.96 1051.72
  L 766.96 1018.94
  A 0.56 0.55 0.0 0 1 767.52 1018.39
  Q 796.35 1018.24 855.75 1018.86
  Q 946.68 1019.80 1037.91 1019.31
  Z"
/>
<rect fill="#dba440" x="-26.11" y="-5.39" transform="translate(1109.82,754.43) rotate(19.6)" width="52.22" height="10.78" rx="0.86"/>
<rect fill="#e7b354" x="-26.16" y="-5.28" transform="translate(144.48,755.20) rotate(-19.6)" width="52.32" height="10.56" rx="0.75"/>
<path fill="#dba440" d="
  M 782.69 965.61
  C 773.38 961.28 765.64 960.39 754.21 958.67
  Q 808.02 946.17 863.74 950.86
  Q 899.94 953.91 932.27 961.00
  Q 964.10 967.98 993.26 977.07
  C 1002.57 979.97 1011.18 982.23 1019.74 985.06
  A 1.02 1.01 -88.9 0 1 1020.38 985.73
  L 1022.89 994.00
  A 0.61 0.61 0.0 0 1 1022.15 994.77
  C 999.46 988.51 978.80 982.47 957.07 977.86
  C 949.31 976.22 938.79 973.57 929.59 971.93
  Q 891.00 965.09 858.31 962.93
  Q 821.65 960.52 782.69 965.61
  Z"
/>
<path fill="#621516" d="
  M 757.31 1147.30
  A 0.37 0.36 12.9 0 1 756.78 1147.63
  L 721.89 1130.22
  A 1.82 1.56 58.7 0 0 721.46 1130.08
  Q 720.31 1129.87 717.92 1131.15
  Q 704.98 1138.06 685.38 1148.27
  A 0.36 0.35 75.6 0 1 684.86 1147.96
  Q 683.76 1092.51 683.13 1063.76
  C 683.04 1059.30 682.67 1054.13 682.64 1049.41
  Q 682.49 1022.50 680.41 997.11
  A 0.99 0.98 76.0 0 1 681.00 996.12
  Q 691.18 991.73 703.66 988.41
  Q 727.86 981.97 753.03 981.73
  A 0.80 0.80 0.0 0 1 753.84 982.50
  C 754.69 1007.09 755.47 1025.75 755.86 1049.19
  Q 757.14 1125.72 757.19 1133.75
  Q 757.23 1141.04 757.31 1147.30
  Z
  M 727.02 1064.54
  A 0.69 0.69 0.0 0 1 727.71 1063.85
  L 745.04 1063.85
  A 0.69 0.69 0.0 0 0 745.73 1063.16
  L 745.73 1050.76
  A 0.69 0.69 0.0 0 0 745.04 1050.07
  L 727.15 1050.07
  A 0.69 0.69 0.0 0 1 726.46 1049.38
  L 726.46 1027.26
  A 0.69 0.69 0.0 0 0 725.77 1026.57
  L 713.03 1026.57
  A 0.69 0.69 0.0 0 0 712.34 1027.26
  L 712.34 1049.42
  A 0.69 0.69 0.0 0 1 711.65 1050.11
  L 694.14 1050.11
  A 0.69 0.69 0.0 0 0 693.45 1050.80
  L 693.45 1063.26
  A 0.69 0.69 0.0 0 0 694.14 1063.95
  L 712.38 1063.95
  A 0.69 0.69 0.0 0 1 713.07 1064.64
  L 713.07 1101.78
  A 0.69 0.69 0.0 0 0 713.76 1102.47
  L 726.33 1102.47
  A 0.69 0.69 0.0 0 0 727.02 1101.78
  L 727.02 1064.54
  Z"
/>
<path fill="#fdeccc" d="
  M 651.13 1022.19
  L 647.42 1020.94
  A 0.48 0.48 0.0 0 1 647.28 1020.10
  L 668.23 1004.11
  A 0.75 0.75 0.0 0 1 669.44 1004.71
  L 669.44 1009.49
  A 2.25 2.24 76.2 0 1 668.24 1011.48
  Q 659.91 1015.79 653.12 1021.78
  A 2.04 2.03 -56.5 0 1 651.13 1022.19
  Z"
/>
<path fill="#fcfcfc" d="
  M 658.85 1024.95
  A 0.43 0.42 -48.4 0 1 658.81 1024.19
  L 669.60 1017.96
  A 0.42 0.41 -15.0 0 1 670.22 1018.31
  L 670.22 1023.70
  A 1.77 1.76 -11.7 0 1 669.15 1025.32
  L 665.12 1027.09
  A 1.53 1.49 -44.7 0 1 663.91 1027.10
  L 658.85 1024.95
  Z"
/>
<path fill="#e7b354" d="
  M 727.02 1064.54
  L 727.02 1101.78
  A 0.69 0.69 0.0 0 1 726.33 1102.47
  L 713.76 1102.47
  A 0.69 0.69 0.0 0 1 713.07 1101.78
  L 713.07 1064.64
  A 0.69 0.69 0.0 0 0 712.38 1063.95
  L 694.14 1063.95
  A 0.69 0.69 0.0 0 1 693.45 1063.26
  L 693.45 1050.80
  A 0.69 0.69 0.0 0 1 694.14 1050.11
  L 711.65 1050.11
  A 0.69 0.69 0.0 0 0 712.34 1049.42
  L 712.34 1027.26
  A 0.69 0.69 0.0 0 1 713.03 1026.57
  L 725.77 1026.57
  A 0.69 0.69 0.0 0 1 726.46 1027.26
  L 726.46 1049.38
  A 0.69 0.69 0.0 0 0 727.15 1050.07
  L 745.04 1050.07
  A 0.69 0.69 0.0 0 1 745.73 1050.76
  L 745.73 1063.16
  A 0.69 0.69 0.0 0 1 745.04 1063.85
  L 727.71 1063.85
  A 0.69 0.69 0.0 0 0 727.02 1064.54
  Z"
/>
<path fill="#621516" d="
  M 670.87 1031.61
  Q 670.37 1031.87 669.00 1030.48
  A 0.72 0.71 29.7 0 1 668.81 1029.82
  Q 668.91 1029.40 669.55 1029.07
  Q 670.18 1028.74 670.58 1028.90
  A 0.72 0.71 -84.6 0 1 671.02 1029.43
  Q 671.37 1031.35 670.87 1031.61
  Z"
/>
<path fill="#621516" d="
  M 569.41 1053.30
  Q 569.73 1053.05 570.72 1053.17
  Q 571.33 1053.24 572.29 1053.12
  Q 594.73 1050.13 611.79 1049.15
  C 622.00 1048.56 636.53 1048.53 648.44 1049.32
  Q 663.79 1050.34 671.14 1050.59
  A 0.85 0.84 1.1 0 1 671.96 1051.43
  L 671.96 1073.64
  A 0.96 0.96 0.0 0 1 671.33 1074.54
  C 661.78 1078.01 651.82 1080.99 640.92 1081.88
  Q 626.63 1083.04 612.06 1081.66
  Q 597.43 1080.28 580.96 1073.27
  Q 568.18 1067.84 568.94 1054.18
  A 1.18 1.18 0.0 0 1 569.41 1053.30
  Z"
/>
<path fill="#042344" d="
  M 279.20 1064.86
  A 0.39 0.39 0.0 0 1 279.48 1064.21
  L 556.87 1064.21
  A 0.47 0.46 -4.3 0 1 557.33 1064.60
  C 559.12 1076.73 570.16 1084.90 580.78 1089.02
  Q 593.53 1093.96 606.51 1095.69
  C 628.48 1098.62 651.43 1097.64 672.04 1089.47
  A 0.20 0.20 0.0 0 1 672.32 1089.65
  Q 673.02 1114.35 673.87 1160.50
  C 673.92 1163.20 674.53 1166.65 678.34 1164.63
  Q 700.41 1152.96 720.08 1143.10
  A 1.73 1.72 -45.2 0 1 721.62 1143.09
  L 765.56 1164.35
  A 0.75 0.72 49.3 0 0 766.07 1164.40
  Q 768.89 1163.66 768.86 1161.21
  Q 768.55 1131.88 768.42 1111.49
  C 768.33 1097.35 767.56 1080.01 767.63 1064.51
  A 0.28 0.28 0.0 0 1 767.91 1064.23
  L 974.45 1064.23
  A 0.51 0.51 0.0 0 1 974.77 1065.13
  C 908.44 1118.57 831.97 1157.97 748.43 1177.26
  Q 716.88 1184.54 685.35 1188.23
  C 583.00 1200.19 476.94 1179.87 385.64 1133.60
  Q 342.10 1111.53 298.89 1079.69
  Q 290.48 1073.49 289.01 1072.46
  Q 281.18 1066.96 279.20 1064.86
  Z
  M 629.18 1110.00
  L 611.47 1110.00
  A 0.84 0.84 0.0 0 0 610.63 1110.84
  L 610.63 1113.80
  A 0.88 0.88 0.0 0 0 611.55 1114.68
  Q 613.42 1114.61 614.93 1115.30
  A 2.69 2.69 0.0 0 1 616.35 1118.60
  L 603.57 1156.51
  A 0.37 0.37 0.0 0 1 602.87 1156.51
  Q 595.16 1132.30 590.70 1118.55
  C 589.69 1115.45 592.32 1114.87 594.69 1114.57
  A 0.91 0.90 86.4 0 0 595.48 1113.67
  L 595.48 1110.70
  A 0.80 0.80 0.0 0 0 594.68 1109.90
  L 572.37 1109.90
  A 1.43 1.43 0.0 0 0 570.94 1111.33
  L 570.94 1113.16
  A 1.73 1.72 -88.8 0 0 572.59 1114.89
  C 576.69 1115.08 577.00 1117.91 578.33 1121.82
  Q 589.19 1153.50 596.06 1175.15
  A 0.92 0.90 -8.7 0 0 596.93 1175.78
  L 602.61 1175.78
  A 1.06 1.05 -81.4 0 0 603.62 1175.03
  Q 610.91 1152.21 621.79 1122.04
  C 623.16 1118.25 624.39 1114.88 629.15 1114.53
  A 0.71 0.71 0.0 0 0 629.81 1113.82
  L 629.81 1110.63
  A 0.63 0.63 0.0 0 0 629.18 1110.00
  Z
  M 639.19 1142.75
  Q 639.17 1164.53 639.13 1167.25
  C 639.09 1170.30 636.23 1170.73 633.87 1170.92
  A 0.93 0.93 0.0 0 0 633.02 1171.85
  L 633.02 1174.72
  A 0.84 0.83 89.2 0 0 633.87 1175.56
  Q 639.35 1175.41 645.41 1175.48
  Q 651.46 1175.42 656.94 1175.57
  A 0.84 0.83 -89.1 0 0 657.79 1174.74
  L 657.80 1171.87
  A 0.93 0.93 0.0 0 0 656.95 1170.94
  C 654.59 1170.75 651.73 1170.31 651.69 1167.26
  Q 651.66 1164.54 651.68 1142.76
  Q 651.70 1120.97 651.73 1118.26
  C 651.77 1115.20 654.63 1114.77 656.99 1114.58
  A 0.93 0.93 0.0 0 0 657.84 1113.65
  L 657.84 1110.78
  A 0.84 0.83 89.2 0 0 656.99 1109.95
  Q 651.51 1110.10 645.46 1110.03
  Q 639.41 1110.09 633.93 1109.93
  A 0.84 0.83 -89.1 0 0 633.07 1110.76
  L 633.07 1113.63
  A 0.93 0.93 0.0 0 0 633.92 1114.57
  C 636.28 1114.76 639.14 1115.19 639.17 1118.25
  Q 639.20 1120.96 639.19 1142.75
  Z"
/>
<path fill="#e7b354" d="
  M 629.18 1110.00
  A 0.63 0.63 0.0 0 1 629.81 1110.63
  L 629.81 1113.82
  A 0.71 0.71 0.0 0 1 629.15 1114.53
  C 624.39 1114.88 623.16 1118.25 621.79 1122.04
  Q 610.91 1152.21 603.62 1175.03
  A 1.06 1.05 -81.4 0 1 602.61 1175.78
  L 596.93 1175.78
  A 0.92 0.90 -8.7 0 1 596.06 1175.15
  Q 589.19 1153.50 578.33 1121.82
  C 577.00 1117.91 576.69 1115.08 572.59 1114.89
  A 1.73 1.72 -88.8 0 1 570.94 1113.16
  L 570.94 1111.33
  A 1.43 1.43 0.0 0 1 572.37 1109.90
  L 594.68 1109.90
  A 0.80 0.80 0.0 0 1 595.48 1110.70
  L 595.48 1113.67
  A 0.91 0.90 86.4 0 1 594.69 1114.57
  C 592.32 1114.87 589.69 1115.45 590.70 1118.55
  Q 595.16 1132.30 602.87 1156.51
  A 0.37 0.37 0.0 0 0 603.57 1156.51
  L 616.35 1118.60
  A 2.69 2.69 0.0 0 0 614.93 1115.30
  Q 613.42 1114.61 611.55 1114.68
  A 0.88 0.88 0.0 0 1 610.63 1113.80
  L 610.63 1110.84
  A 0.84 0.84 0.0 0 1 611.47 1110.00
  L 629.18 1110.00
  Z"
/>
<path fill="#e7b354" d="
  M 645.46 1110.03
  Q 651.51 1110.10 656.99 1109.95
  A 0.84 0.83 89.2 0 1 657.84 1110.78
  L 657.84 1113.65
  A 0.93 0.93 0.0 0 1 656.99 1114.58
  C 654.63 1114.77 651.77 1115.20 651.73 1118.26
  Q 651.70 1120.97 651.68 1142.76
  Q 651.66 1164.54 651.69 1167.26
  C 651.73 1170.31 654.59 1170.75 656.95 1170.94
  A 0.93 0.93 0.0 0 1 657.80 1171.87
  L 657.79 1174.74
  A 0.84 0.83 -89.1 0 1 656.94 1175.57
  Q 651.46 1175.42 645.41 1175.48
  Q 639.35 1175.41 633.87 1175.56
  A 0.84 0.83 89.2 0 1 633.02 1174.72
  L 633.02 1171.85
  A 0.93 0.93 0.0 0 1 633.87 1170.92
  C 636.23 1170.73 639.09 1170.30 639.13 1167.25
  Q 639.17 1164.53 639.19 1142.75
  Q 639.20 1120.96 639.17 1118.25
  C 639.14 1115.19 636.28 1114.76 633.92 1114.57
  A 0.93 0.93 0.0 0 1 633.07 1113.63
  L 633.07 1110.76
  A 0.84 0.83 -89.1 0 1 633.93 1109.93
  Q 639.41 1110.09 645.46 1110.03
  Z"
/>
</svg>
